<svg xmlns="http://www.w3.org/2000/svg" width="28.953" height="14.477" viewBox="0 0 28.953 14.477">
  <path id="Icon_open-infinity" data-name="Icon open-infinity" d="M7.238,0A7.023,7.023,0,0,0,0,7.238a7.023,7.023,0,0,0,7.238,7.238c2.859,0,5.139-2.027,7.238-4.415,2.1,2.389,4.307,4.415,7.238,4.415a7.023,7.023,0,0,0,7.238-7.238A7.023,7.023,0,0,0,21.715,0c-2.932,0-5.139,2.027-7.238,4.415C12.377,2.027,10.1,0,7.238,0Zm0,3.619c1.52,0,3.185,1.7,4.85,3.619-1.665,1.918-3.33,3.619-4.85,3.619A3.4,3.4,0,0,1,3.619,7.238,3.4,3.4,0,0,1,7.238,3.619Zm14.477,0a3.4,3.4,0,0,1,3.619,3.619,3.4,3.4,0,0,1-3.619,3.619c-1.556,0-3.221-1.7-4.85-3.619C18.53,5.32,20.159,3.619,21.715,3.619Z" fill="#fff"/>
</svg>
