<svg xmlns="http://www.w3.org/2000/svg" width="14.63" height="14.63" viewBox="0 0 14.63 14.63">
  <path id="Icon_ionic-ios-close-circle" data-name="Icon ionic-ios-close-circle" d="M10.69,3.375a7.315,7.315,0,1,0,7.315,7.315A7.314,7.314,0,0,0,10.69,3.375Zm1.853,9.963L10.69,11.485,8.837,13.338a.562.562,0,1,1-.795-.795L9.9,10.69,8.042,8.837a.562.562,0,0,1,.795-.795L10.69,9.9l1.853-1.853a.562.562,0,1,1,.795.795L11.485,10.69l1.853,1.853a.565.565,0,0,1,0,.795A.558.558,0,0,1,12.543,13.338Z" transform="translate(-3.375 -3.375)" fill="#d10606"/>
</svg>
