<svg xmlns="http://www.w3.org/2000/svg" width="14.625" height="14.625" viewBox="0 0 14.625 14.625">
  <path id="Icon_ionic-ios-checkmark-circle" data-name="Icon ionic-ios-checkmark-circle" d="M10.688,3.375A7.313,7.313,0,1,0,18,10.688,7.311,7.311,0,0,0,10.688,3.375Zm3.744,5.291-4.7,4.721h0a.635.635,0,0,1-.408.193.615.615,0,0,1-.411-.2L6.94,11.412a.14.14,0,0,1,0-.2l.626-.626a.136.136,0,0,1,.2,0l1.561,1.561,4.289-4.321a.139.139,0,0,1,.1-.042h0a.128.128,0,0,1,.1.042l.615.636A.139.139,0,0,1,14.432,8.666Z" transform="translate(-3.375 -3.375)" fill="#18a05f"/>
</svg>
