<svg xmlns="http://www.w3.org/2000/svg" width="14.286" height="12.697" viewBox="0 0 14.286 12.697">
  <path id="Icon_awesome-edit" data-name="Icon awesome-edit" d="M9.986,2.068l2.237,2.237a.243.243,0,0,1,0,.342L6.806,10.065l-2.3.255a.482.482,0,0,1-.533-.533l.255-2.3L9.643,2.068A.243.243,0,0,1,9.986,2.068ZM14,1.5,12.793.29a.97.97,0,0,0-1.369,0l-.878.878a.243.243,0,0,0,0,.342l2.237,2.237a.243.243,0,0,0,.342,0L14,2.869A.97.97,0,0,0,14,1.5ZM9.524,8.591v2.525H1.587V3.179h5.7A.3.3,0,0,0,7.5,3.092L8.49,2.1a.3.3,0,0,0-.211-.508H1.191A1.191,1.191,0,0,0,0,2.782v8.731A1.191,1.191,0,0,0,1.191,12.7H9.921a1.191,1.191,0,0,0,1.191-1.191V7.6a.3.3,0,0,0-.508-.211l-.992.992A.3.3,0,0,0,9.524,8.591Z" transform="translate(0 -0.007)" fill="#323232"/>
</svg>
