<svg xmlns="http://www.w3.org/2000/svg" width="26.739" height="21.016" viewBox="0 0 26.739 21.016">
  <path id="Icon_awesome-user-lock" data-name="Icon awesome-user-lock" d="M9.359,10.508a5.3,5.3,0,0,0,5.348-5.254,5.349,5.349,0,0,0-10.7,0A5.3,5.3,0,0,0,9.359,10.508Zm4.011,2.627a2.554,2.554,0,0,1,.338-1.252,5.816,5.816,0,0,0-.606-.062h-.7a7.391,7.391,0,0,1-6.092,0h-.7A5.568,5.568,0,0,0,0,17.337v1.709a1.988,1.988,0,0,0,2.005,1.97H13.741A2.574,2.574,0,0,1,13.37,19.7ZM25.4,11.822H24.065V8.538a3.343,3.343,0,0,0-6.685,0v3.284H16.044a1.325,1.325,0,0,0-1.337,1.314V19.7a1.325,1.325,0,0,0,1.337,1.314H25.4A1.325,1.325,0,0,0,26.739,19.7V13.135A1.325,1.325,0,0,0,25.4,11.822Zm-4.679,5.911a1.314,1.314,0,1,1,1.337-1.314A1.325,1.325,0,0,1,20.723,17.732Zm1.337-5.911H19.386V8.538a1.337,1.337,0,0,1,2.674,0Z" fill="#fff"/>
</svg>
