<svg xmlns="http://www.w3.org/2000/svg" width="49.137" height="43" viewBox="0 0 49.137 43">
  <path id="Icon_awesome-cubes" data-name="Icon awesome-cubes" d="M46.892,23.192l-9.271-3.474V9.3A3.454,3.454,0,0,0,35.375,6.07l-9.6-3.6a3.414,3.414,0,0,0-2.428,0l-9.6,3.6A3.454,3.454,0,0,0,11.507,9.3V19.717L2.236,23.192A3.459,3.459,0,0,0,0,26.426V36.992a3.458,3.458,0,0,0,1.91,3.09l9.6,4.8a3.435,3.435,0,0,0,3.09,0l9.971-4.991,9.971,4.991a3.435,3.435,0,0,0,3.09,0l9.6-4.8a3.458,3.458,0,0,0,1.91-3.09V26.426A3.454,3.454,0,0,0,46.892,23.192Zm-12.534-3.4L26.2,22.856V16.31l8.158-3.551ZM14.78,9.17,24.569,5.5,34.358,9.17v.058L24.569,13.2,14.78,9.228Zm8.062,27.937-8.158,4.079V33.595l8.158-3.724Zm0-10.749-9.789,3.973L3.263,26.359V26.3l9.789-3.666L22.841,26.3ZM45.874,37.107l-8.158,4.079V33.595l8.158-3.724Zm0-10.749-9.789,3.973L26.3,26.359V26.3l9.789-3.666L45.874,26.3Z" transform="translate(0 -2.248)" fill="#18a05f"/>
</svg>
