<svg xmlns="http://www.w3.org/2000/svg" width="35.501" height="35.501" viewBox="0 0 35.501 35.501">
  <path id="Icon_awesome-chess-queen" data-name="Icon awesome-chess-queen" d="M17.75,7.766a3.883,3.883,0,1,0-3.883-3.883A3.883,3.883,0,0,0,17.75,7.766Zm12.2,23.3H5.547a1.109,1.109,0,0,0-1.109,1.109v2.219A1.109,1.109,0,0,0,5.547,35.5H29.954a1.109,1.109,0,0,0,1.109-1.109V32.173A1.109,1.109,0,0,0,29.954,31.063Zm5.053-18.294-1.977-1.1a1.134,1.134,0,0,0-1.546.325,3.3,3.3,0,0,1-3.275,1.264A3.452,3.452,0,0,1,25.516,9.8a.929.929,0,0,0-.929-.929H21.9a.9.9,0,0,0-.892.687,3.328,3.328,0,0,1-6.514,0,.9.9,0,0,0-.892-.687H10.914a.929.929,0,0,0-.929.929,3.449,3.449,0,0,1-3.1,3.5,3.294,3.294,0,0,1-2.88-1.328,1.124,1.124,0,0,0-1.532-.315L.494,12.772a1.109,1.109,0,0,0-.377,1.419L7.228,28.844H28.273l7.111-14.656a1.109,1.109,0,0,0-.377-1.419Z" fill="#f8b600"/>
</svg>
