<svg xmlns="http://www.w3.org/2000/svg" width="34.876" height="31.001" viewBox="0 0 34.876 31.001">
  <path id="Icon_awesome-hand-holding-heart" data-name="Icon awesome-hand-holding-heart" d="M16.668,15.166a1.055,1.055,0,0,0,1.544,0l6.593-6.914a5.019,5.019,0,0,0-.339-7.193,4.6,4.6,0,0,0-6.351.466l-.678.708-.672-.7a4.6,4.6,0,0,0-6.351-.472,5.024,5.024,0,0,0-.339,7.193Zm17.558,4.7a2,2,0,0,0-2.579,0l-5.594,4.474a3.855,3.855,0,0,1-2.422.848H16.468a.969.969,0,0,1,0-1.937h4.741a2.016,2.016,0,0,0,2.016-1.61,1.94,1.94,0,0,0-1.913-2.264H11.625a7.126,7.126,0,0,0-4.486,1.592L4.323,23.249H.969A.972.972,0,0,0,0,24.218V30.03A.972.972,0,0,0,.969,31h21.6a3.88,3.88,0,0,0,2.422-.848l9.154-7.326A1.936,1.936,0,0,0,34.226,19.864Z" transform="translate(0 0.002)" fill="#f8b600"/>
</svg>
