<svg xmlns="http://www.w3.org/2000/svg" width="13" height="13" viewBox="0 0 13 13">
  <path id="Icon_material-settings" data-name="Icon material-settings" d="M14.872,10.137a4.361,4.361,0,0,0,0-1.274l1.41-1.073a.322.322,0,0,0,.08-.416L15.026,5.126a.34.34,0,0,0-.408-.143l-1.664.65A4.917,4.917,0,0,0,11.825,5l-.254-1.722A.323.323,0,0,0,11.244,3H8.571a.323.323,0,0,0-.327.273L7.99,5a5.17,5.17,0,0,0-1.129.637L5.2,4.982a.33.33,0,0,0-.408.143L3.452,7.374a.315.315,0,0,0,.08.416l1.41,1.073A5.017,5.017,0,0,0,4.9,9.5a5.017,5.017,0,0,0,.047.637l-1.41,1.073a.322.322,0,0,0-.08.416l1.336,2.249a.34.34,0,0,0,.408.143l1.664-.65A4.917,4.917,0,0,0,7.99,14l.254,1.722A.323.323,0,0,0,8.571,16h2.673a.323.323,0,0,0,.327-.273L11.825,14a5.17,5.17,0,0,0,1.129-.637l1.664.65a.33.33,0,0,0,.408-.143l1.336-2.249a.322.322,0,0,0-.08-.416l-1.41-1.073ZM9.907,11.775A2.276,2.276,0,1,1,12.246,9.5,2.31,2.31,0,0,1,9.907,11.775Z" transform="translate(-3.406 -3)" fill="#fff"/>
</svg>
