<svg xmlns="http://www.w3.org/2000/svg" width="14.12" height="11.296" viewBox="0 0 14.12 11.296">
  <path id="Icon_awesome-user-shield" data-name="Icon awesome-user-shield" d="M13.73,5.981l-2.542-.993a.684.684,0,0,0-.49,0l-2.542.993a.6.6,0,0,0-.391.549A5.016,5.016,0,0,0,10.7,11.25a.684.684,0,0,0,.49,0A5,5,0,0,0,14.12,6.531.6.6,0,0,0,13.73,5.981ZM10.943,10.2V6.03l2.107.823A3.946,3.946,0,0,1,10.943,10.2Zm-6-4.554A2.824,2.824,0,1,0,2.118,2.824,2.824,2.824,0,0,0,4.942,5.648Zm2.118.883a1.253,1.253,0,0,1,.024-.159c-.055,0-.108-.018-.165-.018H6.55a3.841,3.841,0,0,1-3.217,0H2.965A2.966,2.966,0,0,0,0,9.319v.918A1.059,1.059,0,0,0,1.059,11.3H8.825a1.086,1.086,0,0,0,.424-.088A5.928,5.928,0,0,1,7.06,6.531Z" fill="#fff"/>
</svg>
