<svg xmlns="http://www.w3.org/2000/svg" width="17.575" height="11.717" viewBox="0 0 17.575 11.717">
  <path id="Icon_awesome-eye" data-name="Icon awesome-eye" d="M17.469,9.913A9.787,9.787,0,0,0,8.788,4.5,9.788,9.788,0,0,0,.106,9.913a.987.987,0,0,0,0,.891,9.787,9.787,0,0,0,8.681,5.413A9.788,9.788,0,0,0,17.469,10.8.987.987,0,0,0,17.469,9.913ZM8.788,14.752a4.394,4.394,0,1,1,4.394-4.394A4.394,4.394,0,0,1,8.788,14.752Zm0-7.323a2.908,2.908,0,0,0-.772.116A1.46,1.46,0,0,1,5.974,9.586,2.922,2.922,0,1,0,8.788,7.429Z" transform="translate(0 -4.5)" fill="#c4c4c4"/>
</svg>
