<svg xmlns="http://www.w3.org/2000/svg" xmlns:xlink="http://www.w3.org/1999/xlink" width="80" height="80" viewBox="0 0 80 80">
  <defs>
    <clipPath id="clip-path">
      <rect id="Rectangle_545" data-name="Rectangle 545" width="80" height="80" transform="translate(-19374 -12639)" fill="#1ec988"/>
    </clipPath>
  </defs>
  <g id="Mask_Group_36" data-name="Mask Group 36" transform="translate(19374 12639)" clip-path="url(#clip-path)">
    <g id="Group_2771" data-name="Group 2771" transform="translate(-19373.689 -12639)">
      <path id="Path_9247" data-name="Path 9247" d="M63.75,80H11.35a2.35,2.35,0,0,1,0-4.7,8.047,8.047,0,0,0,8.037-8.037V2.35A2.339,2.339,0,0,1,21.738,0h52.8a2.347,2.347,0,0,1,2.35,2.35V66.875A13.142,13.142,0,0,1,63.75,80ZM21.225,75.3H63.75a8.429,8.429,0,0,0,8.425-8.425V4.7H24.087V67.25A12.723,12.723,0,0,1,21.225,75.3Z" transform="translate(2.078)" fill="#fff"/>
      <path id="Path_9248" data-name="Path 9248" d="M13.428,77.84A12.75,12.75,0,0,1,.69,65.1V37.84a2.347,2.347,0,0,1,2.35-2.35H23.8a2.347,2.347,0,0,1,2.35,2.35V65.1A12.731,12.731,0,0,1,13.428,77.84ZM5.4,40.19v24.9a8.031,8.031,0,1,0,16.062,0V40.19ZM68.14,23.928H33.665a2.347,2.347,0,0,1-2.35-2.35V10.99a2.347,2.347,0,0,1,2.35-2.35H68.14a2.347,2.347,0,0,1,2.35,2.35V21.578A2.347,2.347,0,0,1,68.14,23.928ZM36.027,19.215H65.79V13.34H36.027ZM47.79,47.252H33.665a2.347,2.347,0,0,1-2.35-2.35V30.778a2.347,2.347,0,0,1,2.35-2.35H47.778a2.347,2.347,0,0,1,2.35,2.35V44.89A2.332,2.332,0,0,1,47.79,47.252ZM36.027,42.54H45.44V33.127H36.027ZM68.14,47.252H56.378a2.35,2.35,0,0,1,0-4.7H68.14a2.35,2.35,0,1,1,0,4.7Zm0,11.763H33.665a2.35,2.35,0,0,1,0-4.7H68.14a2.35,2.35,0,1,1,0,4.7Z" transform="translate(0 2.16)" fill="#fff"/>
    </g>
  </g>
</svg>
