<svg id="Component_52_1" data-name="Component 52 – 1" xmlns="http://www.w3.org/2000/svg" width="27" height="27" viewBox="0 0 27 27">
  <path id="Path_8426" data-name="Path 8426" d="M4,0H23a4,4,0,0,1,4,4V23a4,4,0,0,1-4,4H4a4,4,0,0,1-4-4V4A4,4,0,0,1,4,0Z" fill="#fff"/>
  <path id="Icon_awesome-facebook-f" data-name="Icon awesome-facebook-f" d="M7.088,6.158l.3-1.981h-1.9V2.891a.991.991,0,0,1,1.117-1.07h.864V.134A10.539,10.539,0,0,0,5.938,0,2.419,2.419,0,0,0,3.35,2.667v1.51H1.609V6.158H3.35v4.789H5.491V6.158Z" transform="translate(8.786 8.2)" fill="#18a05f"/>
</svg>
