<svg id="Component_51_1" data-name="Component 51 – 1" xmlns="http://www.w3.org/2000/svg" width="27" height="27" viewBox="0 0 27 27">
  <path id="Path_8425" data-name="Path 8425" d="M4,0H23a4,4,0,0,1,4,4V23a4,4,0,0,1-4,4H4a4,4,0,0,1-4-4V4A4,4,0,0,1,4,0Z" fill="#fff"/>
  <path id="Icon_ionic-logo-youtube" data-name="Icon ionic-logo-youtube" d="M12.875,6.647A1.968,1.968,0,0,0,11,4.591C9.6,4.525,8.169,4.5,6.708,4.5H6.253c-1.458,0-2.891.025-4.294.091A1.972,1.972,0,0,0,.088,6.652c-.063.9-.091,1.8-.089,2.7s.025,1.8.086,2.706a1.975,1.975,0,0,0,1.871,2.063c1.473.068,2.985.1,4.521.1s3.045-.025,4.521-.1a1.975,1.975,0,0,0,1.873-2.063c.061-.9.089-1.805.086-2.709S12.936,7.551,12.875,6.647ZM5.24,11.839V6.864L8.911,9.35Z" transform="translate(7.329 4.312)" fill="#18a05f"/>
</svg>
