<svg xmlns="http://www.w3.org/2000/svg" xmlns:xlink="http://www.w3.org/1999/xlink" width="512.997" height="471.035" viewBox="0 0 512.997 471.035">
  <defs>
    <clipPath id="clip-path">
      <path id="Path_599" data-name="Path 599" d="M262.493,404.915a21.045,21.045,0,1,1-5.337-29.288A21.056,21.056,0,0,1,262.493,404.915Z" transform="translate(-224.121 -371.887)" fill="#92e3a9" stroke="#263238" stroke-linecap="round" stroke-linejoin="round" stroke-width="1"/>
    </clipPath>
    <clipPath id="clip-path-2">
      <path id="Path_631" data-name="Path 631" d="M463.712,97.152,447.565,254.712l-9.93,96.926L298.862,337.422l-27-2.765-17.289-1.771L269.894,183.3,280.647,78.4Z" transform="translate(-254.57 -78.4)" fill="#fff" stroke="#263238" stroke-linecap="round" stroke-linejoin="round" stroke-width="1"/>
    </clipPath>
    <clipPath id="clip-path-3">
      <circle id="Ellipse_34" data-name="Ellipse 34" cx="33.475" cy="33.475" r="33.475" transform="matrix(0.768, -0.64, 0.64, 0.768, 0, 42.852)" fill="#92e3a9" stroke="#263238" stroke-miterlimit="10" stroke-width="1"/>
    </clipPath>
    <clipPath id="clip-path-4">
      <path id="Path_656" data-name="Path 656" d="M416.609,201.6l-3.787,8.6L310.889,346.109l-11.353-7.237,15.413-19.337L406.5,204.692l8.076-5.13A2.867,2.867,0,0,1,416.609,201.6Z" transform="translate(-299.536 -199.562)" fill="#92e3a9" stroke="#263238" stroke-linecap="round" stroke-linejoin="round" stroke-width="1"/>
    </clipPath>
    <clipPath id="clip-path-5">
      <path id="Path_660" data-name="Path 660" d="M346.606,292.764s-11.375,22.583-22.323,38.556l-7.821,2.023s-17.939,17.827-28.884,26.724a24.546,24.546,0,0,1-5.35-4.492s15.543-29.845,32.737-48.736a21.94,21.94,0,0,1,5.642,3,27.7,27.7,0,0,1,5.888,5.651l19.166-24.113Z" transform="translate(-282.228 -291.371)" fill="#92e3a9" stroke="#263238" stroke-linecap="round" stroke-linejoin="round" stroke-width="1"/>
    </clipPath>
    <clipPath id="clip-path-6">
      <path id="Path_694" data-name="Path 694" d="M331.95,303.091,178.184,367.8l-15.85,6.674L132.464,303.5,63.1,138.686,232.715,67.3Z" transform="translate(-63.1 -67.3)" fill="#fff" stroke="#263238" stroke-linecap="round" stroke-linejoin="round" stroke-width="1"/>
    </clipPath>
  </defs>
  <g id="Group_746" data-name="Group 746" transform="translate(-25.059 -50.162)">
    <g id="Background_Simple" data-name="Background Simple" transform="translate(25.059 50.162)">
      <g id="Group_529" data-name="Group 529">
        <path id="Path_590" data-name="Path 590" d="M257.255,51.485C398.993,38.863,399.233,118.831,463.1,193.331s77.531,108.278,53.456,194.159-105.2,153.2-205.568,115.059-157.857-1.513-221.161-35.387S3.012,367.844,49.349,290.713,82.485,67.05,257.255,51.485Z" transform="translate(-25.059 -50.162)" fill="#92e3c5"/>
        <path id="Path_591" data-name="Path 591" d="M257.255,51.485C398.993,38.863,399.233,118.831,463.1,193.331s77.531,108.278,53.456,194.159-105.2,153.2-205.568,115.059-157.857-1.513-221.161-35.387S3.012,367.844,49.349,290.713,82.485,67.05,257.255,51.485Z" transform="translate(-25.059 -50.162)" fill="#fff" opacity="0.7"/>
      </g>
    </g>
    <g id="Doodles" transform="translate(28.222 55.528)">
      <g id="Group_535" data-name="Group 535" transform="translate(0 0)">
        <g id="Group_530" data-name="Group 530" transform="translate(232.204)">
          <rect id="Rectangle_156" data-name="Rectangle 156" width="35.462" height="35.462" rx="5.09" transform="translate(0 7.308) rotate(-11.893)" fill="none" stroke="#263238" stroke-linecap="round" stroke-linejoin="round" stroke-width="1"/>
          <line id="Line_69" data-name="Line 69" x2="2.98" y2="14.15" transform="translate(19.514 13.929)" fill="none" stroke="#263238" stroke-linecap="round" stroke-linejoin="round" stroke-width="1"/>
          <line id="Line_70" data-name="Line 70" x1="14.15" y2="2.98" transform="translate(13.929 19.514)" fill="none" stroke="#263238" stroke-linecap="round" stroke-linejoin="round" stroke-width="1"/>
        </g>
        <g id="Group_531" data-name="Group 531" transform="translate(467.233 249.266)">
          <rect id="Rectangle_157" data-name="Rectangle 157" width="35.462" height="35.462" rx="5.09" transform="translate(0 7.308) rotate(-11.893)" fill="none" stroke="#263238" stroke-linecap="round" stroke-linejoin="round" stroke-width="1"/>
          <line id="Line_71" data-name="Line 71" x1="7.898" y2="12.113" transform="translate(17.055 14.948)" fill="none" stroke="#263238" stroke-linecap="round" stroke-linejoin="round" stroke-width="1"/>
          <line id="Line_72" data-name="Line 72" x1="12.113" y1="7.898" transform="translate(14.948 17.055)" fill="none" stroke="#263238" stroke-linecap="round" stroke-linejoin="round" stroke-width="1"/>
        </g>
        <g id="Group_532" data-name="Group 532" transform="translate(150.552 399.271)">
          <rect id="Rectangle_158" data-name="Rectangle 158" width="35.462" height="35.462" rx="5.09" transform="translate(2.044 0) rotate(3.304)" fill="none" stroke="#263238" stroke-linecap="round" stroke-linejoin="round" stroke-width="1"/>
          <line id="Line_73" data-name="Line 73" x1="14.436" y1="0.833" transform="translate(11.505 18.307)" fill="none" stroke="#263238" stroke-linecap="round" stroke-linejoin="round" stroke-width="1"/>
        </g>
        <g id="Group_534" data-name="Group 534" transform="translate(0 227.092)">
          <rect id="Rectangle_159" data-name="Rectangle 159" width="35.462" height="35.462" rx="5.09" transform="translate(11.152 0) rotate(18.329)" fill="none" stroke="#263238" stroke-linecap="round" stroke-linejoin="round" stroke-width="1"/>
          <line id="Line_74" data-name="Line 74" x1="18.091" y2="9.087" transform="translate(13.362 17.864)" fill="none" stroke="#263238" stroke-linecap="round" stroke-linejoin="round" stroke-width="1"/>
          <g id="Group_533" data-name="Group 533" transform="translate(16.292 12.734)">
            <path id="Path_592" data-name="Path 592" d="M46.864,266.121A2.524,2.524,0,1,1,43.476,265,2.525,2.525,0,0,1,46.864,266.121Z" transform="translate(-42.084 -264.729)" fill="none" stroke="#263238" stroke-linecap="round" stroke-linejoin="round" stroke-width="1"/>
            <path id="Path_593" data-name="Path 593" d="M53.148,278.632a2.524,2.524,0,1,1-3.388-1.123A2.523,2.523,0,0,1,53.148,278.632Z" transform="translate(-41.187 -262.944)" fill="none" stroke="#263238" stroke-linecap="round" stroke-linejoin="round" stroke-width="1"/>
          </g>
        </g>
      </g>
    </g>
    <g id="Coins" transform="translate(222.473 398.397)">
      <g id="Group_538" data-name="Group 538" transform="translate(30.061 19.409)">
        <path id="Path_594" data-name="Path 594" d="M262.493,404.915a21.045,21.045,0,1,1-5.337-29.288A21.056,21.056,0,0,1,262.493,404.915Z" transform="translate(-224.121 -371.887)" fill="#92e3c5"/>
        <g id="Group_537" data-name="Group 537" clip-path="url(#clip-path)">
          <path id="Path_595" data-name="Path 595" d="M259.33,402.6a17.713,17.713,0,1,1-4.5-24.644A17.714,17.714,0,0,1,259.33,402.6Z" transform="translate(-223.704 -371.47)" fill="rgba(0,0,0,0.7)" opacity="0.3"/>
          <path id="Path_596" data-name="Path 596" d="M259.33,402.6a17.713,17.713,0,1,1-4.5-24.644A17.714,17.714,0,0,1,259.33,402.6Z" transform="translate(-223.704 -371.47)" fill="none" stroke="#263238" stroke-linecap="round" stroke-linejoin="round" stroke-width="1"/>
          <g id="Group_536" data-name="Group 536" transform="translate(13.187 10.983)">
            <path id="Path_597" data-name="Path 597" d="M248.071,382.728l.85-1.23,2.127,1.47-.85,1.23c1.583,1.652,1.548,3.724,0,5.97l-.36.521-2.458-1.7.473-.684c.818-1.183.656-1.958-.171-2.53s-1.611-.45-2.428.731-.915,2.336-.131,4.939c.952,3.173.785,4.979-.522,6.87-1.552,2.245-3.518,3.017-5.623,2.119l-.833,1.207-2.127-1.471.833-1.206c-1.606-1.668-1.554-3.764,0-6.008l.784-1.135,2.458,1.7-.9,1.3c-.817,1.183-.592,1.967.235,2.538s1.641.506,2.458-.675.932-2.359.131-4.939c-.967-3.148-.784-4.978.523-6.869C244.073,382.651,245.974,381.871,248.071,382.728Z" transform="translate(-235.661 -381.498)" fill="#92e3a9" stroke="#263238" stroke-linecap="round" stroke-linejoin="round" stroke-width="1"/>
          </g>
          <path id="Path_598" data-name="Path 598" d="M239.307,375.767a28.359,28.359,0,0,1-13.873,24.4,21.038,21.038,0,0,1,13.7-27.494A27.667,27.667,0,0,1,239.307,375.767Z" transform="translate(-224.121 -371.775)" fill="rgba(0,0,0,0.7)" opacity="0.2"/>
        </g>
        <path id="Path_600" data-name="Path 600" d="M262.493,404.915a21.045,21.045,0,1,1-5.337-29.288A21.056,21.056,0,0,1,262.493,404.915Z" transform="translate(-224.121 -371.887)" fill="none" stroke="#263238" stroke-linecap="round" stroke-linejoin="round" stroke-width="1"/>
      </g>
      <g id="Group_540" data-name="Group 540" transform="translate(0 1.693)">
        <circle id="Ellipse_28" data-name="Ellipse 28" cx="21.055" cy="21.055" r="21.055" fill="#92e3c5" stroke="#263238" stroke-linecap="round" stroke-linejoin="round" stroke-width="1"/>
        <circle id="Ellipse_29" data-name="Ellipse 29" cx="17.713" cy="17.713" r="17.713" transform="translate(3.341 3.341)" fill="rgba(0,0,0,0.7)" opacity="0.3"/>
        <circle id="Ellipse_30" data-name="Ellipse 30" cx="17.713" cy="17.713" r="17.713" transform="translate(3.341 3.341)" fill="none" stroke="#263238" stroke-linecap="round" stroke-linejoin="round" stroke-width="1"/>
        <g id="Group_539" data-name="Group 539" transform="translate(16.343 9.705)">
          <path id="Path_601" data-name="Path 601" d="M215.535,366.372v-1.5h2.586v1.5c2.242.458,3.392,2.183,3.392,4.911v.633h-2.988v-.833c0-1.438-.575-1.983-1.58-1.983s-1.582.545-1.582,1.983.576,2.442,2.7,4.137c2.586,2.068,3.477,3.649,3.477,5.948,0,2.73-1.178,4.482-3.42,4.941v1.466h-2.586v-1.466c-2.269-.459-3.418-2.211-3.418-4.941v-1.379h2.988v1.579c0,1.438.632,1.954,1.638,1.954s1.638-.516,1.638-1.954-.575-2.471-2.7-4.137c-2.585-2.04-3.476-3.649-3.476-5.948C212.2,368.583,213.324,366.859,215.535,366.372Z" transform="translate(-212.117 -364.876)" fill="#92e3c5" stroke="#263238" stroke-linecap="round" stroke-linejoin="round" stroke-width="1"/>
        </g>
      </g>
      <g id="Group_542" data-name="Group 542" transform="translate(92.43 0)">
        <circle id="Ellipse_31" data-name="Ellipse 31" cx="21.055" cy="21.055" r="21.055" transform="translate(0 35.455) rotate(-57.348)" fill="#92e3c5" stroke="#263238" stroke-linecap="round" stroke-linejoin="round" stroke-width="1"/>
        <path id="Path_602" data-name="Path 602" d="M319.347,370.514a17.714,17.714,0,1,1-25.034-.925A17.713,17.713,0,0,1,319.347,370.514Z" transform="translate(-277.28 -353.481)" fill="rgba(0,0,0,0.7)" opacity="0.3"/>
        <path id="Path_603" data-name="Path 603" d="M319.347,370.514a17.714,17.714,0,1,1-25.034-.925A17.713,17.713,0,0,1,319.347,370.514Z" transform="translate(-277.28 -353.481)" fill="none" stroke="#263238" stroke-linecap="round" stroke-linejoin="round" stroke-width="1"/>
        <g id="Group_541" data-name="Group 541" transform="translate(20.415 19.892)">
          <path id="Path_604" data-name="Path 604" d="M297.584,375.164l-1.018-1.095,1.895-1.76,1.018,1.095c1.954-1.188,3.97-.708,5.827,1.292l.431.464-2.189,2.033-.567-.61c-.978-1.054-1.77-1.062-2.507-.377s-.787,1.475.191,2.528,2.083,1.4,4.794,1.194c3.3-.245,5.031.306,6.6,1.992,1.858,2,2.187,4.085.857,5.947l1,1.074-1.895,1.76-1-1.074c-1.976,1.208-4.01.706-5.868-1.294l-.938-1.011,2.189-2.034,1.075,1.158c.978,1.054,1.792,1,2.529.318s.848-1.492-.13-2.546-2.1-1.419-4.794-1.193c-3.283.265-5.03-.307-6.595-1.993C296.647,379.052,296.3,377.026,297.584,375.164Z" transform="translate(-296.566 -372.309)" fill="#92e3c5" stroke="#263238" stroke-linecap="round" stroke-linejoin="round" stroke-width="1"/>
        </g>
      </g>
    </g>
    <g id="Right_hand" data-name="Right hand" transform="translate(287.328 82.43)">
      <g id="Group_608" data-name="Group 608">
        <path id="Path_605" data-name="Path 605" d="M297.467,300.254s-.087,43.693,0,46.245,3.394,17.9,3.394,17.9l-10.609,19.558,9.134,7.363,17.771-17.468s15.132,9.348,17.9,22.715,19.229,23.1,36.314,60.128,36.571-82.843,36.571-82.843l-52.711-66.364Z" transform="translate(-249.477 -46.735)" fill="rgba(0,0,0,0.7)" opacity="0.2"/>
        <g id="Group_596" data-name="Group 596">
          <path id="Path_606" data-name="Path 606" d="M463.712,97.152,447.565,254.712l-9.93,96.926L298.862,337.422l-27-2.765-17.289-1.771L269.894,183.3,280.647,78.4Z" transform="translate(-254.57 -78.4)" fill="#fff"/>
          <g id="Group_595" data-name="Group 595" clip-path="url(#clip-path-2)">
            <path id="Path_607" data-name="Path 607" d="M401.3,100.971l-79.023-8.1a2.7,2.7,0,0,0-.551,5.372l79.023,8.1a2.7,2.7,0,1,0,.551-5.371Z" transform="translate(-245.33 -76.336)" fill="#263238"/>
            <path id="Path_608" data-name="Path 608" d="M377.906,108.353l-39.512-4.05a1.35,1.35,0,0,0-.275,2.687l39.512,4.049a1.35,1.35,0,1,0,.275-2.685Z" transform="translate(-242.818 -74.704)" fill="#263238"/>
            <g id="Group_543" data-name="Group 543" transform="translate(25.956 136.785)">
              <path id="Path_609" data-name="Path 609" d="M427.033,211.25,298.776,198.108a1.35,1.35,0,1,0-.274,2.685l128.256,13.143a1.35,1.35,0,0,0,.275-2.685Z" transform="translate(-274.428 -198.101)" fill="#263238"/>
              <path id="Path_610" data-name="Path 610" d="M428.774,219.969,279.637,204.687a1.35,1.35,0,1,0-.274,2.685L428.5,222.655a1.35,1.35,0,0,0,.274-2.687Z" transform="translate(-277.16 -197.162)" fill="#263238"/>
              <path id="Path_611" data-name="Path 611" d="M386.146,224.141l-107.375-11a1.35,1.35,0,0,0-.274,2.685l107.375,11a1.35,1.35,0,1,0,.274-2.685Z" transform="translate(-277.284 -195.955)" fill="#263238"/>
            </g>
            <rect id="Rectangle_160" data-name="Rectangle 160" width="42.811" height="151.133" transform="translate(21.401 206.976) rotate(-84.149)" fill="#bfbfbf" stroke="#263238" stroke-miterlimit="10" stroke-width="1"/>
            <g id="Group_569" data-name="Group 569" transform="translate(26.14 42.277)">
              <g id="Group_547" data-name="Group 547" transform="translate(0)">
                <g id="Group_545" data-name="Group 545" transform="translate(0)">
                  <circle id="Ellipse_32" data-name="Ellipse 32" cx="33.475" cy="33.475" r="33.475" transform="matrix(0.768, -0.64, 0.64, 0.768, 0, 42.852)" fill="#92e3a9"/>
                  <g id="Group_544" data-name="Group 544" clip-path="url(#clip-path-3)">
                    <circle id="Ellipse_33" data-name="Ellipse 33" cx="33.475" cy="33.475" r="33.475" transform="matrix(0.768, -0.64, 0.64, 0.768, 0, 42.852)" fill="#fff" opacity="0.5"/>
                  </g>
                  <circle id="Ellipse_35" data-name="Ellipse 35" cx="33.475" cy="33.475" r="33.475" transform="matrix(0.768, -0.64, 0.64, 0.768, 0, 42.852)" fill="none" stroke="#263238" stroke-miterlimit="10" stroke-width="1"/>
                </g>
                <g id="Group_546" data-name="Group 546" transform="translate(15.175 15.176)">
                  <path id="Path_612" data-name="Path 612" d="M319.543,159.013l27.837,14.005a31.985,31.985,0,0,0-3.682-33.671Z" transform="translate(-286.611 -127.154)" fill="#fff"/>
                  <path id="Path_613" data-name="Path 613" d="M319.7,158.769l23.308-18.975a31.92,31.92,0,0,0-13.019-9.273l-4.2,11.543Z" transform="translate(-286.588 -128.414)" fill="#92e3a9"/>
                  <path id="Path_614" data-name="Path 614" d="M322.364,128.876l-2.827,27.587L329.03,130.4A31.978,31.978,0,0,0,322.364,128.876Z" transform="translate(-286.612 -128.649)" fill="#757575"/>
                  <path id="Path_615" data-name="Path 615" d="M322.2,160.288l3.227-31.491a31.959,31.959,0,0,0-32.055,44.585Z" transform="translate(-290.725 -128.677)" fill="#999"/>
                  <path id="Path_616" data-name="Path 616" d="M319.053,188.38a31.976,31.976,0,0,0,31.578-16.968L322.3,157.158l-28.88,13.117A31.953,31.953,0,0,0,319.053,188.38Z" transform="translate(-290.34 -124.612)" fill="#bfbfbf"/>
                </g>
              </g>
              <g id="Group_568" data-name="Group 568" transform="translate(90.976 24.945)">
                <g id="Group_551" data-name="Group 551" transform="translate(4.812 0)">
                  <rect id="Rectangle_161" data-name="Rectangle 161" width="5.269" height="5.269" rx="0.626" transform="translate(0.537 0) rotate(5.851)" fill="#92e3a9" stroke="#263238" stroke-miterlimit="10" stroke-width="1"/>
                  <g id="Group_550" data-name="Group 550" transform="translate(8.106 1.584)">
                    <g id="Group_548" data-name="Group 548" transform="translate(0.269)">
                      <path id="Path_617" data-name="Path 617" d="M418.341,144.862l-49.2-5.042a.605.605,0,1,1,.123-1.2l49.2,5.042a.605.605,0,1,1-.123,1.2Z" transform="translate(-368.597 -138.612)" fill="#263238"/>
                    </g>
                    <g id="Group_549" data-name="Group 549" transform="translate(0 2.621)">
                      <path id="Path_618" data-name="Path 618" d="M413.288,146.662l-44.382-4.548a.605.605,0,0,1,.123-1.2l44.382,4.548a.605.605,0,1,1-.123,1.2Z" transform="translate(-368.362 -140.906)" fill="#263238"/>
                    </g>
                  </g>
                </g>
                <g id="Group_555" data-name="Group 555" transform="translate(3.609 11.739)">
                  <rect id="Rectangle_162" data-name="Rectangle 162" width="5.269" height="5.269" rx="0.626" transform="matrix(0.995, 0.102, -0.102, 0.995, 0.537, 0)" fill="#757575" stroke="#263238" stroke-linecap="round" stroke-linejoin="round" stroke-width="1"/>
                  <g id="Group_554" data-name="Group 554" transform="translate(8.105 1.584)">
                    <g id="Group_552" data-name="Group 552" transform="translate(0.269)">
                      <path id="Path_619" data-name="Path 619" d="M417.289,155.135l-49.2-5.042a.605.605,0,1,1,.123-1.2l49.2,5.042a.605.605,0,1,1-.123,1.2Z" transform="translate(-367.544 -148.885)" fill="#263238"/>
                    </g>
                    <g id="Group_553" data-name="Group 553" transform="translate(0 2.62)">
                      <path id="Path_620" data-name="Path 620" d="M412.235,156.934l-44.382-4.548a.605.605,0,1,1,.125-1.2l44.381,4.548a.605.605,0,1,1-.123,1.2Z" transform="translate(-367.309 -151.178)" fill="#263238"/>
                    </g>
                  </g>
                </g>
                <g id="Group_559" data-name="Group 559" transform="translate(2.406 23.478)">
                  <rect id="Rectangle_163" data-name="Rectangle 163" width="5.269" height="5.269" rx="0.626" transform="matrix(0.995, 0.102, -0.102, 0.995, 0.537, 0)" fill="#999" stroke="#263238" stroke-linecap="round" stroke-linejoin="round" stroke-width="1"/>
                  <g id="Group_558" data-name="Group 558" transform="translate(8.106 1.584)">
                    <g id="Group_556" data-name="Group 556" transform="translate(0.269)">
                      <path id="Path_621" data-name="Path 621" d="M416.236,165.408l-49.2-5.042a.605.605,0,1,1,.123-1.2l49.2,5.042a.605.605,0,0,1-.123,1.2Z" transform="translate(-366.492 -159.158)" fill="#263238"/>
                    </g>
                    <g id="Group_557" data-name="Group 557" transform="translate(0 2.62)">
                      <path id="Path_622" data-name="Path 622" d="M411.183,167.207,366.8,162.659a.605.605,0,0,1,.123-1.2L411.307,166a.605.605,0,1,1-.123,1.2Z" transform="translate(-366.257 -161.451)" fill="#263238"/>
                    </g>
                  </g>
                </g>
                <g id="Group_563" data-name="Group 563" transform="translate(1.203 35.217)">
                  <rect id="Rectangle_164" data-name="Rectangle 164" width="5.269" height="5.269" rx="0.626" transform="matrix(0.995, 0.102, -0.102, 0.995, 0.537, 0)" fill="#bfbfbf" stroke="#263238" stroke-miterlimit="10" stroke-width="1"/>
                  <g id="Group_562" data-name="Group 562" transform="translate(8.106 1.584)">
                    <g id="Group_560" data-name="Group 560" transform="translate(0.269)">
                      <path id="Path_623" data-name="Path 623" d="M415.183,175.681l-49.2-5.042a.605.605,0,1,1,.123-1.2l49.2,5.042a.605.605,0,0,1-.123,1.2Z" transform="translate(-365.439 -169.431)" fill="#263238"/>
                    </g>
                    <g id="Group_561" data-name="Group 561" transform="translate(0 2.62)">
                      <path id="Path_624" data-name="Path 624" d="M410.13,177.48l-44.382-4.548a.605.605,0,0,1,.123-1.2l44.382,4.548a.605.605,0,0,1-.123,1.2Z" transform="translate(-365.204 -171.724)" fill="#263238"/>
                    </g>
                  </g>
                </g>
                <g id="Group_567" data-name="Group 567" transform="translate(0 46.956)">
                  <rect id="Rectangle_165" data-name="Rectangle 165" width="5.269" height="5.269" rx="0.626" transform="translate(0.537 0) rotate(5.85)" fill="#fff" stroke="#263238" stroke-linecap="round" stroke-linejoin="round" stroke-width="1"/>
                  <g id="Group_566" data-name="Group 566" transform="translate(8.105 1.583)">
                    <g id="Group_564" data-name="Group 564" transform="translate(0.269)">
                      <path id="Path_625" data-name="Path 625" d="M414.13,185.953l-49.2-5.042a.605.605,0,0,1,.123-1.2l49.2,5.042a.605.605,0,1,1-.123,1.2Z" transform="translate(-364.386 -179.703)" fill="#263238"/>
                    </g>
                    <g id="Group_565" data-name="Group 565" transform="translate(0 2.621)">
                      <path id="Path_626" data-name="Path 626" d="M409.077,187.753,364.695,183.2a.605.605,0,1,1,.123-1.2l44.382,4.548a.605.605,0,1,1-.123,1.2Z" transform="translate(-364.151 -181.997)" fill="#263238"/>
                    </g>
                  </g>
                </g>
              </g>
            </g>
            <g id="Group_593" data-name="Group 593" transform="translate(27.088 176.131)">
              <g id="Group_570" data-name="Group 570" transform="translate(126.264 15.807)">
                <rect id="Rectangle_166" data-name="Rectangle 166" width="2.824" height="16.145" transform="translate(2.809 16.349) rotate(-174.148)" fill="#757575" stroke="#263238" stroke-linecap="round" stroke-linejoin="round" stroke-width="1"/>
                <rect id="Rectangle_167" data-name="Rectangle 167" width="2.824" height="7.6" transform="translate(3.058 13.929) rotate(-174.15)" fill="#92e3a9" stroke="#263238" stroke-miterlimit="10" stroke-width="1"/>
              </g>
              <g id="Group_571" data-name="Group 571" transform="translate(133.004 12.401)">
                <rect id="Rectangle_168" data-name="Rectangle 168" width="2.824" height="16.145" transform="translate(2.809 16.349) rotate(-174.15)" fill="#757575" stroke="#263238" stroke-linecap="round" stroke-linejoin="round" stroke-width="1"/>
                <rect id="Rectangle_169" data-name="Rectangle 169" width="7.6" height="2.824" transform="translate(0.434 11.827) rotate(-84.148)" fill="#92e3a9" stroke="#263238" stroke-miterlimit="10" stroke-width="1"/>
              </g>
              <g id="Group_572" data-name="Group 572" transform="translate(139.012 16.13)">
                <rect id="Rectangle_170" data-name="Rectangle 170" width="2.824" height="16.145" transform="translate(2.809 16.349) rotate(-174.15)" fill="#757575" stroke="#263238" stroke-linecap="round" stroke-linejoin="round" stroke-width="1"/>
                <rect id="Rectangle_171" data-name="Rectangle 171" width="2.824" height="7.6" transform="translate(3.429 10.3) rotate(-174.148)" fill="#92e3a9" stroke="#263238" stroke-miterlimit="10" stroke-width="1"/>
              </g>
              <g id="Group_573" data-name="Group 573" transform="translate(120.265 11.986)">
                <rect id="Rectangle_172" data-name="Rectangle 172" width="2.824" height="16.145" transform="translate(2.809 16.349) rotate(-174.148)" fill="#757575" stroke="#263238" stroke-linecap="round" stroke-linejoin="round" stroke-width="1"/>
                <rect id="Rectangle_173" data-name="Rectangle 173" width="2.824" height="7.6" transform="translate(3.058 13.929) rotate(-174.15)" fill="#92e3a9" stroke="#263238" stroke-miterlimit="10" stroke-width="1"/>
              </g>
              <g id="Group_574" data-name="Group 574" transform="translate(113.455 16.089)">
                <rect id="Rectangle_174" data-name="Rectangle 174" width="2.824" height="16.145" transform="translate(2.809 16.349) rotate(-174.15)" fill="#757575" stroke="#263238" stroke-linecap="round" stroke-linejoin="round" stroke-width="1"/>
                <rect id="Rectangle_175" data-name="Rectangle 175" width="2.824" height="7.6" transform="translate(2.995 14.534) rotate(-174.148)" fill="#92e3a9" stroke="#263238" stroke-miterlimit="10" stroke-width="1"/>
              </g>
              <g id="Group_575" data-name="Group 575" transform="translate(107.556 11.294)">
                <rect id="Rectangle_176" data-name="Rectangle 176" width="2.824" height="16.145" transform="translate(2.81 16.349) rotate(-174.15)" fill="#757575" stroke="#263238" stroke-linecap="round" stroke-linejoin="round" stroke-width="1"/>
                <rect id="Rectangle_177" data-name="Rectangle 177" width="2.824" height="7.6" transform="translate(2.871 15.744) rotate(-174.148)" fill="#92e3a9" stroke="#263238" stroke-miterlimit="10" stroke-width="1"/>
              </g>
              <g id="Group_576" data-name="Group 576" transform="translate(100.371 19.043)">
                <rect id="Rectangle_178" data-name="Rectangle 178" width="2.824" height="16.145" transform="translate(2.809 16.349) rotate(-174.148)" fill="#757575" stroke="#263238" stroke-linecap="round" stroke-linejoin="round" stroke-width="1"/>
                <rect id="Rectangle_179" data-name="Rectangle 179" width="2.824" height="7.6" transform="translate(2.872 15.744) rotate(-174.148)" fill="#92e3a9" stroke="#263238" stroke-miterlimit="10" stroke-width="1"/>
              </g>
              <g id="Group_577" data-name="Group 577" transform="translate(95.084 8.281)">
                <rect id="Rectangle_180" data-name="Rectangle 180" width="2.824" height="16.145" transform="translate(2.809 16.349) rotate(-174.15)" fill="#757575" stroke="#263238" stroke-linecap="round" stroke-linejoin="round" stroke-width="1"/>
                <rect id="Rectangle_181" data-name="Rectangle 181" width="2.824" height="7.6" transform="translate(3.057 13.929) rotate(-174.15)" fill="#92e3a9" stroke="#263238" stroke-miterlimit="10" stroke-width="1"/>
              </g>
              <g id="Group_578" data-name="Group 578" transform="translate(88.855 6.696)">
                <rect id="Rectangle_182" data-name="Rectangle 182" width="2.824" height="16.145" transform="translate(2.809 16.349) rotate(-174.148)" fill="#757575" stroke="#263238" stroke-linecap="round" stroke-linejoin="round" stroke-width="1"/>
                <rect id="Rectangle_183" data-name="Rectangle 183" width="2.824" height="7.6" transform="translate(3.43 10.3) rotate(-174.15)" fill="#92e3a9" stroke="#263238" stroke-miterlimit="10" stroke-width="1"/>
              </g>
              <g id="Group_579" data-name="Group 579" transform="translate(81.499 16.128)">
                <rect id="Rectangle_184" data-name="Rectangle 184" width="2.824" height="16.145" transform="translate(2.809 16.349) rotate(-174.15)" fill="#757575" stroke="#263238" stroke-linecap="round" stroke-linejoin="round" stroke-width="1"/>
                <rect id="Rectangle_185" data-name="Rectangle 185" width="2.824" height="7.6" transform="translate(3.491 9.695) rotate(-174.15)" fill="#92e3a9" stroke="#263238" stroke-miterlimit="10" stroke-width="1"/>
              </g>
              <g id="Group_580" data-name="Group 580" transform="translate(75.898 8.421)">
                <rect id="Rectangle_186" data-name="Rectangle 186" width="2.824" height="16.145" transform="translate(2.809 16.349) rotate(-174.15)" fill="#757575" stroke="#263238" stroke-linecap="round" stroke-linejoin="round" stroke-width="1"/>
                <rect id="Rectangle_187" data-name="Rectangle 187" width="2.824" height="7.6" transform="translate(3.119 13.324) rotate(-174.15)" fill="#92e3a9" stroke="#263238" stroke-miterlimit="10" stroke-width="1"/>
              </g>
              <g id="Group_581" data-name="Group 581" transform="translate(69.145 11.963)">
                <rect id="Rectangle_188" data-name="Rectangle 188" width="2.824" height="16.145" transform="translate(2.809 16.349) rotate(-174.148)" fill="#757575" stroke="#263238" stroke-linecap="round" stroke-linejoin="round" stroke-width="1"/>
                <rect id="Rectangle_189" data-name="Rectangle 189" width="2.824" height="7.6" transform="matrix(-0.995, -0.102, 0.102, -0.995, 3.058, 13.929)" fill="#92e3a9" stroke="#263238" stroke-miterlimit="10" stroke-width="1"/>
              </g>
              <g id="Group_582" data-name="Group 582" transform="translate(62.082 18.526)">
                <rect id="Rectangle_190" data-name="Rectangle 190" width="2.824" height="16.145" transform="translate(2.809 16.349) rotate(-174.148)" fill="#757575" stroke="#263238" stroke-linecap="round" stroke-linejoin="round" stroke-width="1"/>
                <rect id="Rectangle_191" data-name="Rectangle 191" width="2.824" height="7.6" transform="translate(2.81 16.349) rotate(-174.15)" fill="#92e3a9" stroke="#263238" stroke-miterlimit="10" stroke-width="1"/>
              </g>
              <g id="Group_583" data-name="Group 583" transform="translate(56.8 7.706)">
                <rect id="Rectangle_192" data-name="Rectangle 192" width="2.824" height="16.145" transform="translate(2.809 16.349) rotate(-174.15)" fill="#757575" stroke="#263238" stroke-linecap="round" stroke-linejoin="round" stroke-width="1"/>
                <rect id="Rectangle_193" data-name="Rectangle 193" width="2.824" height="7.6" transform="translate(2.995 14.534) rotate(-174.15)" fill="#92e3a9" stroke="#263238" stroke-miterlimit="10" stroke-width="1"/>
              </g>
              <g id="Group_584" data-name="Group 584" transform="translate(51.199 0)">
                <rect id="Rectangle_194" data-name="Rectangle 194" width="2.824" height="16.145" transform="matrix(-0.995, -0.102, 0.102, -0.995, 2.81, 16.349)" fill="#757575" stroke="#263238" stroke-linecap="round" stroke-linejoin="round" stroke-width="1"/>
                <rect id="Rectangle_195" data-name="Rectangle 195" width="2.824" height="7.6" transform="translate(2.996 14.534) rotate(-174.15)" fill="#92e3a9" stroke="#263238" stroke-miterlimit="10" stroke-width="1"/>
              </g>
              <g id="Group_585" data-name="Group 585" transform="translate(44.005 7.853)">
                <rect id="Rectangle_196" data-name="Rectangle 196" width="2.824" height="16.145" transform="translate(2.809 16.349) rotate(-174.15)" fill="#757575" stroke="#263238" stroke-linecap="round" stroke-linejoin="round" stroke-width="1"/>
                <rect id="Rectangle_197" data-name="Rectangle 197" width="2.824" height="7.6" transform="translate(3.429 10.3) rotate(-174.148)" fill="#92e3a9" stroke="#263238" stroke-miterlimit="10" stroke-width="1"/>
              </g>
              <g id="Group_586" data-name="Group 586" transform="translate(36.75 16.283)">
                <rect id="Rectangle_198" data-name="Rectangle 198" width="2.824" height="16.145" transform="translate(2.809 16.349) rotate(-174.15)" fill="#757575" stroke="#263238" stroke-linecap="round" stroke-linejoin="round" stroke-width="1"/>
                <rect id="Rectangle_199" data-name="Rectangle 199" width="2.824" height="7.6" transform="translate(3.553 9.09) rotate(-174.15)" fill="#92e3a9" stroke="#263238" stroke-miterlimit="10" stroke-width="1"/>
              </g>
              <g id="Group_587" data-name="Group 587" transform="translate(31.357 6.556)">
                <rect id="Rectangle_200" data-name="Rectangle 200" width="2.824" height="16.145" transform="translate(2.809 16.349) rotate(-174.15)" fill="#757575" stroke="#263238" stroke-linecap="round" stroke-linejoin="round" stroke-width="1"/>
                <rect id="Rectangle_201" data-name="Rectangle 201" width="2.824" height="7.6" transform="translate(3.057 13.929) rotate(-174.148)" fill="#92e3a9" stroke="#263238" stroke-miterlimit="10" stroke-width="1"/>
              </g>
              <g id="Group_588" data-name="Group 588" transform="translate(25.306 3.236)">
                <rect id="Rectangle_202" data-name="Rectangle 202" width="2.824" height="16.145" transform="translate(2.809 16.349) rotate(-174.148)" fill="#757575" stroke="#263238" stroke-linecap="round" stroke-linejoin="round" stroke-width="1"/>
                <rect id="Rectangle_203" data-name="Rectangle 203" width="2.824" height="7.6" transform="translate(3.491 9.695) rotate(-174.15)" fill="#92e3a9" stroke="#263238" stroke-miterlimit="10" stroke-width="1"/>
              </g>
              <g id="Group_589" data-name="Group 589" transform="translate(18.469 7.598)">
                <rect id="Rectangle_204" data-name="Rectangle 204" width="2.824" height="16.145" transform="translate(2.809 16.349) rotate(-174.148)" fill="#757575" stroke="#263238" stroke-linecap="round" stroke-linejoin="round" stroke-width="1"/>
                <rect id="Rectangle_205" data-name="Rectangle 205" width="2.824" height="7.6" transform="translate(2.81 16.349) rotate(-174.15)" fill="#92e3a9" stroke="#263238" stroke-miterlimit="10" stroke-width="1"/>
              </g>
              <g id="Group_590" data-name="Group 590" transform="translate(12.659 1.94)">
                <rect id="Rectangle_206" data-name="Rectangle 206" width="2.824" height="16.145" transform="translate(2.809 16.349) rotate(-174.15)" fill="#757575" stroke="#263238" stroke-linecap="round" stroke-linejoin="round" stroke-width="1"/>
                <rect id="Rectangle_207" data-name="Rectangle 207" width="2.824" height="7.6" transform="translate(2.933 15.139) rotate(-174.148)" fill="#92e3a9" stroke="#263238" stroke-miterlimit="10" stroke-width="1"/>
              </g>
              <g id="Group_591" data-name="Group 591" transform="translate(6.113 3.459)">
                <rect id="Rectangle_208" data-name="Rectangle 208" width="2.824" height="16.145" transform="translate(2.809 16.349) rotate(-174.15)" fill="#757575" stroke="#263238" stroke-linecap="round" stroke-linejoin="round" stroke-width="1"/>
                <rect id="Rectangle_209" data-name="Rectangle 209" width="2.824" height="7.6" transform="translate(2.871 15.744) rotate(-174.15)" fill="#92e3a9" stroke="#263238" stroke-miterlimit="10" stroke-width="1"/>
              </g>
              <g id="Group_592" data-name="Group 592" transform="translate(0 0.748)">
                <rect id="Rectangle_210" data-name="Rectangle 210" width="2.824" height="16.145" transform="translate(2.81 16.349) rotate(-174.15)" fill="#757575" stroke="#263238" stroke-linecap="round" stroke-linejoin="round" stroke-width="1"/>
                <rect id="Rectangle_211" data-name="Rectangle 211" width="2.824" height="7.6" transform="translate(3.615 8.485) rotate(-174.15)" fill="#92e3a9" stroke="#263238" stroke-miterlimit="10" stroke-width="1"/>
              </g>
            </g>
            <g id="Group_594" data-name="Group 594" transform="translate(17.985 214.568)">
              <path id="Path_627" data-name="Path 627" d="M420.058,279.317,291.8,266.175a1.35,1.35,0,0,0-.274,2.685L419.783,282a1.35,1.35,0,0,0,.275-2.687Z" transform="translate(-267.453 -266.168)" fill="#263238"/>
              <path id="Path_628" data-name="Path 628" d="M421.8,288.037,272.662,272.754a1.35,1.35,0,1,0-.274,2.685l149.138,15.283a1.35,1.35,0,0,0,.274-2.685Z" transform="translate(-270.185 -265.229)" fill="#263238"/>
              <path id="Path_629" data-name="Path 629" d="M358.29,290.068,271.8,281.2a1.35,1.35,0,0,0-.274,2.687l86.493,8.863a1.35,1.35,0,1,0,.275-2.687Z" transform="translate(-270.309 -264.023)" fill="#263238"/>
            </g>
            <path id="Path_630" data-name="Path 630" d="M439.3,219.669c-4.422-.354-5.954,6.7-5.954,6.7s-6.993-9.165-5.885-30.717c0,0-3.417-9.553-12.57-3.782s-18.638,26.111-16.375,48.269l-17.792-59.068c-6.148,1.3-18.638,9.565-15.347,49.457L345.965,210s-5.257-1.691-8.228,2.96-1.554,37.961.9,50.417-3.805,37.482-3.805,37.482-6.694-28.339-18.809-35.51L269.894,170.2,254.57,319.783l17.289,1.771,27.765-13.515c-.154,6.251-.306,12-.762,16.28l138.773,14.216,9.93-96.926C444.194,229.53,440.972,219.794,439.3,219.669Z" transform="translate(-254.57 -65.297)" fill="rgba(0,0,0,0.7)" opacity="0.2"/>
          </g>
          <path id="Path_632" data-name="Path 632" d="M463.712,97.152,447.565,254.712l-9.93,96.926L298.862,337.422l-27-2.765-17.289-1.771L269.894,183.3,280.647,78.4Z" transform="translate(-254.57 -78.4)" fill="none" stroke="#263238" stroke-linecap="round" stroke-linejoin="round" stroke-width="1"/>
        </g>
        <g id="Group_607" data-name="Group 607" transform="translate(31.606 115.747)">
          <g id="Group_600" data-name="Group 600" transform="translate(12.22)">
            <g id="Group_597" data-name="Group 597" transform="translate(0.009)">
              <path id="Path_633" data-name="Path 633" d="M455.952,488.318l-81.134,13.8s-14.124-75.02-22.546-86.836-6.879-16.684-10.97-24.649c-2.468-4.811-14.844-13.781-24.557-22.637h-.011c-.846-.766-1.668-1.531-2.457-2.3-.343-.309-.663-.64-.983-.948-1.291-1.28-2.491-2.525-3.554-3.748q-.583-.651-1.1-1.3a18.507,18.507,0,0,1-3.931-6.959,1.764,1.764,0,0,1-.069-.354,2.956,2.956,0,0,1-.069-.423c-.217-1.771-.446-3.794-.674-5.988-.046-.434-.091-.891-.149-1.348-.023-.183-.046-.354-.069-.549-.194-1.828-.411-3.771-.663-5.771-.251-2.091-.526-4.262-.846-6.445-.1-.754-.206-1.508-.331-2.274,0-.011,0-.023-.011-.023-.126-.846-.263-1.691-.4-2.548l-.377-2.194c-.023-.126-.057-.24-.069-.343-.16-.857-.32-1.691-.48-2.537a1.151,1.151,0,0,1-.057-.286c-.16-.743-.309-1.474-.48-2.217-.354-1.657-.754-3.28-1.188-4.857a60.243,60.243,0,0,0-3.028-8.685c-5.851-13.061,1.76-8.342-2.823-41.95,0,0,3.371-7.793,12.981-1.566a25.745,25.745,0,0,1,2.148,1.566h.011a27.014,27.014,0,0,1,5.108,5.462,31.558,31.558,0,0,1,4.411,9.1,39.552,39.552,0,0,1,1.3,16.341s7.222,24.752,11.027,30.385,19.541-26.728,18.524-30.5a50.933,50.933,0,0,1-.811-5.119c-.069-.56-.137-1.154-.217-1.783s-.149-1.28-.217-1.954c-.046-.32-.08-.663-.126-.994-.011-.137-.023-.274-.046-.4-.137-1.291-.3-2.663-.446-4.08-.034-.4-.08-.777-.126-1.166-.069-.674-.137-1.371-.206-2.057a2.9,2.9,0,0,1-.034-.343c-.046-.389-.091-.789-.126-1.2-.091-.8-.171-1.611-.251-2.423-.08-.7-.137-1.394-.206-2.091-.137-1.314-.263-2.628-.389-3.9-.091-.948-.183-1.885-.263-2.8-.023-.206-.046-.411-.057-.606-.48-5.028-.857-9.165-.994-10.924,0,0-11.439-16.935-12.616-24.911s-1.074-16.375,3.714-19.792c11.336-8.068,8.022,4.937,13.1,10.319,5.074,5.405,12.856,14.2,17.267,16.958,4.068,2.583,7.7,12.616,8.216,14.078-.583-2.194-6.4-23.769-6.525-28.111-.149-4.582-3.645-28.751,2.3-37.424s13.838-1.943,14.57-.229.948,25.129,3.04,31.654,10.845,33.676,10.845,33.676.366-26.42,2.343-38.247,7.108-21.072,12.136-21.6,9.679,5.017,9.679,5.017S420,213.149,420.573,217.5s-.823,20.078,1.566,28.534c0,0-.274-22.523,3.223-25.4s6.5-4.262,8.468-2.32,2.388,15.278,4.388,23.3,1.748,18.924,3.063,31.436,6.491,29.882,5.462,39.813c-1.028,9.907-4.194,34.556-6.742,49.012s-9.05,34.259-9.05,34.259,2.96,10.57,2.388,20S455.952,488.318,455.952,488.318Z" transform="translate(-292.93 -179.69)" fill="#fff"/>
            </g>
            <g id="Group_598" data-name="Group 598" transform="translate(5.856 25.158)">
              <path id="Path_634" data-name="Path 634" d="M377.791,211.749c1.555,4.827,6.748,20.96,9.335,29.015,0,0-11.343,8.337-11.06,16.083s-2.076,23.384-7.169,22.935-4.633-32.975-6.3-38.439c1.034,2.345,1.7,4.258,1.84,4.634-.377-1.4-6.437-23.79-6.565-28.225-.03-1.043-.24-3.116-.474-5.8l0-.053s11.272-10.791,19.551-4.184v.01A27.763,27.763,0,0,0,377.791,211.749Z" transform="translate(-289.575 -201.154)" fill="#92e3c5" opacity="0.4"/>
              <path id="Path_635" data-name="Path 635" d="M407.589,221.6c-5.281,5.006-13.247,13.856-14.254,22.4,0,0,2.944,23.828,1.686,34.225l-10.294-32.24s.37-26.423,2.347-38.246c.051-.323.113-.656.176-.978a47,47,0,0,1,20.666-5.052c-.4,5.1-.721,10.555-.45,12.653A69.05,69.05,0,0,1,407.589,221.6Z" transform="translate(-285.675 -201.706)" fill="#92e3c5" opacity="0.4"/>
              <path id="Path_636" data-name="Path 636" d="M408.934,215.613l-.01.01-.033.03c-.121.087-.431.33-.886.713a15.105,15.105,0,0,1,.9-1.49Z" transform="translate(-282.353 -199.826)" fill="#92e3c5" opacity="0.4"/>
              <path id="Path_637" data-name="Path 637" d="M412.032,281.76s-6.787-25.463-6.907-45.964c-.049-7.584.827-14.5,3.28-19.178l.011-.009a15.113,15.113,0,0,1,.9-1.49l.027.737a18.706,18.706,0,0,1,4.044-2.675c-1.906,2.975-4.1,8.791-1.56,18.243C415.81,246.23,412.345,264.314,412.032,281.76Z" transform="translate(-282.764 -200.068)" fill="#92e3c5" opacity="0.4"/>
              <path id="Path_638" data-name="Path 638" d="M333.689,324.544s1.824,24.265-17.678,32.952H316c-.846-.767-1.661-1.532-2.456-2.3-.338-.315-.665-.64-.983-.954-1.288-1.278-2.495-2.53-3.555-3.752-.393-.445-.755-.876-1.1-1.3a18.516,18.516,0,0,1-3.926-6.96,2.294,2.294,0,0,1-.073-.352,3.554,3.554,0,0,1-.069-.424c-.217-1.77-.44-3.792-.673-5.994-.047-.433-.093-.888-.149-1.344-.021-.181-.041-.36-.061-.551-.2-1.832-.422-3.769-.666-5.772-.25-2.087-.527-4.259-.846-6.445-.111-.753-.222-1.516-.334-2.271,0-.01,0-.021-.009-.022-.127-.848-.264-1.7-.4-2.548-.123-.733-.257-1.466-.381-2.2-.024-.117-.048-.234-.063-.341-.158-.85-.317-1.691-.486-2.532a2.552,2.552,0,0,1-.056-.287c-.154-.745-.309-1.481-.474-2.216q-.557-2.48-1.2-4.858c7.715-7.423,25.522-2.767,16.9-19.962,0,0,4.341-14.717-7.624-30.677h.01c8.187,6.6,12.375,18.193,10.827,30.906,0,0,7.22,24.742,11.027,30.381s19.536-26.728,18.517-30.5c-.2-.748-.482-2.6-.8-5.117-.07-.562-.139-1.155-.216-1.78s-.153-1.281-.227-1.959c-.043-.319-.075-.657-.118-.986-.013-.137-.025-.274-.049-.4-.141-1.3-.288-2.667-.443-4.085-.039-.392-.079-.772-.128-1.164-.064-.678-.137-1.366-.21-2.053-.015-.106-.018-.222-.032-.338-.04-.392-.088-.794-.126-1.207-.088-.8-.165-1.608-.251-2.423-.073-.7-.135-1.4-.208-2.1-.13-1.311-.259-2.624-.382-3.892-.089-.952-.178-1.893-.27-2.793-.019-.211-.038-.413-.057-.614.318,1.5,6.112,29.081,9.42,35.509C357,295.439,342.591,330.264,333.689,324.544Z" transform="translate(-298.047 -194.339)" fill="#92e3c5" opacity="0.4"/>
              <path id="Path_639" data-name="Path 639" d="M426.3,347.557c-2.549,14.47-9.041,34.26-9.041,34.26s2.957,10.57,2.379,20c-.155,2.535,1.418,8.941,3.777,16.94-.681-1.755-7.966-20.635-7.846-27.221.139-6.91-1.825-8.818-5.678-17.309s-9.726-7.558-9.726-7.558-2.267,21.186-7.585,7.263-6.343-30.114,7.064-86.337c0,0,2.027,7.054.333,28s3.309,27.289,3.309,27.289A195.146,195.146,0,0,0,421.1,301.34s-1.731,24.446-3.276,35.581,5.492-12.9,10.409-27.751c4.619-13.933,4.787-19.233,3.029-29.151,1.306,6.988,2.285,13.652,1.787,18.521C432.019,308.456,428.845,333.1,426.3,347.557Z" transform="translate(-285.08 -190.528)" fill="#92e3c5" opacity="0.4"/>
              <path id="Path_640" data-name="Path 640" d="M341.4,380.356c3.955,6.289,13.637,14.594,19.4,37.578s2.143,48.136,2.143,48.136Z" transform="translate(-291.859 -176.207)" fill="#92e3c5" opacity="0.4"/>
            </g>
            <path id="Path_641" data-name="Path 641" d="M317.59,268.485s-20.238,10.25-21.838,27.391c-5.851-13.061,1.76-8.342-2.823-41.95,0,0,3.371-7.793,12.981-1.566a25.745,25.745,0,0,1,2.148,1.566h.011a27.013,27.013,0,0,1,5.108,5.462Z" transform="translate(-292.921 -169.662)" fill="rgba(0,0,0,0.7)" opacity="0.2"/>
            <g id="Group_599" data-name="Group 599" transform="translate(0 0.004)">
              <path id="Path_642" data-name="Path 642" d="M374.816,502.125S360.7,427.1,352.273,415.285s-6.88-16.684-10.967-24.646-35.345-27.351-36.73-38.668-2.968-33-8.822-46.068,1.761-8.343-2.833-41.953c0,0,3.389-7.784,12.991-1.56s14.661,18.679,12.983,32.471c0,0,7.219,24.738,11.032,30.379s19.527-26.731,18.511-30.507-4.034-35.961-4.506-41.828c0,0-11.44-16.942-12.615-24.917s-1.075-16.376,3.71-19.783c11.338-8.072,8.016,4.932,13.093,10.325s12.857,14.19,17.263,16.956,8.277,14.246,8.277,14.246-6.45-23.7-6.584-28.286-3.643-28.751,2.3-37.418,13.846-1.946,14.574-.235.954,25.124,3.05,31.648,10.828,33.683,10.828,33.683.373-26.418,2.346-38.243,7.117-21.078,12.142-21.6,9.675,5.017,9.675,5.017-1.99,18.854-1.424,23.2-.816,20.073,1.577,28.54c0,0-.282-22.528,3.222-25.409s6.5-4.258,8.462-2.317,2.391,15.278,4.394,23.3,1.751,18.925,3.063,31.435,6.486,29.884,5.462,39.8-4.2,34.56-6.752,49.025-9.033,34.258-9.033,34.258,2.956,10.566,2.378,19.993,22.609,72.183,22.609,72.183" transform="translate(-292.922 -179.693)" fill="none" stroke="#263238" stroke-linecap="round" stroke-linejoin="round" stroke-width="1"/>
              <path id="Path_643" data-name="Path 643" d="M384.723,240.451c2.363,5.552,8.2,29,10.293,32.246a11.062,11.062,0,0,0,4.455,4.225" transform="translate(-279.819 -171.021)" fill="none" stroke="#263238" stroke-linecap="round" stroke-linejoin="round" stroke-width="1"/>
              <path id="Path_644" data-name="Path 644" d="M406.007,237.752s-.5,4.8,2.094,20.121,3.859,21.842,5.314,25.259" transform="translate(-276.787 -171.407)" fill="none" stroke="#263238" stroke-linecap="round" stroke-linejoin="round" stroke-width="1"/>
              <path id="Path_645" data-name="Path 645" d="M363.577,240.983c3.171,9.335,4.963,24.212,6.767,28.691s3.412,5.41,3.412,5.41" transform="translate(-282.837 -170.945)" fill="none" stroke="#263238" stroke-linecap="round" stroke-linejoin="round" stroke-width="1"/>
              <path id="Path_646" data-name="Path 646" d="M368.07,260.585s3.323,2.472,4.383,5.538" transform="translate(-282.196 -168.148)" fill="none" stroke="#263238" stroke-linecap="round" stroke-linejoin="round" stroke-width="1"/>
              <path id="Path_647" data-name="Path 647" d="M325.3,307.061s1.737,12.378,9.493,11.4" transform="translate(-288.3 -161.514)" fill="none" stroke="#263238" stroke-linecap="round" stroke-linejoin="round" stroke-width="1"/>
              <path id="Path_648" data-name="Path 648" d="M341.665,280.364s2.009,14.711-1.286,20.956" transform="translate(-286.148 -165.325)" fill="none" stroke="#263238" stroke-linecap="round" stroke-linejoin="round" stroke-width="1"/>
              <path id="Path_649" data-name="Path 649" d="M396.713,280.477s5.212,3.191,1.727,12.544-9.546,47.112-9.546,47.112" transform="translate(-279.224 -165.308)" fill="none" stroke="#263238" stroke-linecap="round" stroke-linejoin="round" stroke-width="1"/>
              <path id="Path_650" data-name="Path 650" d="M416.895,289.121c2.185,8.454,2.379,8.673-1.17,19.063s-9.27,35.829-9.27,35.829" transform="translate(-276.717 -164.075)" fill="none" stroke="#263238" stroke-linecap="round" stroke-linejoin="round" stroke-width="1"/>
              <path id="Path_651" data-name="Path 651" d="M413.931,370.67s-3.408-6.88-.592-12.532" transform="translate(-275.894 -154.224)" fill="none" stroke="#263238" stroke-linecap="round" stroke-linejoin="round" stroke-width="1"/>
              <path id="Path_652" data-name="Path 652" d="M344.86,385.859s8.617,12.1,12.362,25.646" transform="translate(-285.509 -150.267)" fill="none" stroke="#263238" stroke-linecap="round" stroke-linejoin="round" stroke-width="1"/>
            </g>
          </g>
          <g id="Group_605" data-name="Group 605" transform="translate(0 20.87)">
            <path id="Path_653" data-name="Path 653" d="M400.341,200.554l2.325-2.3,1.058-.3-.07,1.14-2.143,2.728Z" transform="translate(-265.37 -197.953)" fill="#757575" stroke="#263238" stroke-linecap="round" stroke-linejoin="round" stroke-width="1"/>
            <g id="Group_602" data-name="Group 602" transform="translate(19.778 1.838)">
              <path id="Path_654" data-name="Path 654" d="M416.609,201.6l-3.787,8.6L310.889,346.109l-11.353-7.237,15.413-19.337L406.5,204.692l8.076-5.13A2.867,2.867,0,0,1,416.609,201.6Z" transform="translate(-299.536 -199.562)" fill="#92e3c5"/>
              <g id="Group_601" data-name="Group 601" clip-path="url(#clip-path-4)">
                <path id="Path_655" data-name="Path 655" d="M416.609,201.6l-3.787,8.6L310.889,346.109l-11.353-7.237,15.413-19.337c7.079-.734,8.263,3.451,8.263,3.451l87.819-114.62c-.863-3.081-4.527-3.674-4.527-3.674l8.076-5.13A2.867,2.867,0,0,1,416.609,201.6Z" transform="translate(-299.536 -199.562)" fill="rgba(0,0,0,0.7)" opacity="0.3"/>
              </g>
              <path id="Path_657" data-name="Path 657" d="M416.609,201.6l-3.787,8.6L310.889,346.109l-11.353-7.237,15.413-19.337L406.5,204.692l8.076-5.13A2.867,2.867,0,0,1,416.609,201.6Z" transform="translate(-299.536 -199.562)" fill="none" stroke="#263238" stroke-linecap="round" stroke-linejoin="round" stroke-width="1"/>
            </g>
            <g id="Group_604" data-name="Group 604" transform="translate(0 106.751)">
              <path id="Path_658" data-name="Path 658" d="M346.606,292.764s-11.375,22.583-22.323,38.556l-7.821,2.023s-17.939,17.827-28.884,26.724a24.546,24.546,0,0,1-5.35-4.492s15.543-29.845,32.737-48.736a21.94,21.94,0,0,1,5.642,3,27.7,27.7,0,0,1,5.888,5.651l19.166-24.113Z" transform="translate(-282.228 -291.371)" fill="#92e3c5"/>
              <g id="Group_603" data-name="Group 603" clip-path="url(#clip-path-5)">
                <path id="Path_659" data-name="Path 659" d="M345.938,292.764s-11.375,22.583-22.323,38.556l-7.821,2.023s-17.939,17.827-28.884,26.724l.3-4.839c11.87-18.136,26.952-37.915,32.731-45.394a27.7,27.7,0,0,1,5.889,5.651L315.177,329.7l6.1-1.1,23.714-37.23Z" transform="translate(-281.56 -291.371)" fill="rgba(0,0,0,0.7)" opacity="0.3"/>
              </g>
              <path id="Path_661" data-name="Path 661" d="M346.606,292.764s-11.375,22.583-22.323,38.556l-7.821,2.023s-17.939,17.827-28.884,26.724a24.546,24.546,0,0,1-5.35-4.492s15.543-29.845,32.737-48.736a21.94,21.94,0,0,1,5.642,3,27.7,27.7,0,0,1,5.888,5.651l19.166-24.113Z" transform="translate(-282.228 -291.371)" fill="none" stroke="#263238" stroke-linecap="round" stroke-linejoin="round" stroke-width="1"/>
            </g>
          </g>
          <g id="Group_606" data-name="Group 606" transform="translate(49.99 25.94)">
            <path id="Path_662" data-name="Path 662" d="M379.122,280.587l-31.841,30.874-5.087,4.935c3.483-8.956,1.8-22.8,1.576-24.488v-.021c-.015-.1-.022-.149-.022-.149a1.463,1.463,0,0,0-.027-.243c-.2-.749-.482-2.6-.8-5.117-.07-.562-.139-1.155-.216-1.78s-.153-1.281-.227-1.959c-.043-.319-.075-.657-.118-.986-.013-.137-.025-.274-.049-.4-.142-1.291-.3-2.668-.443-4.085-.039-.392-.079-.772-.128-1.164-.064-.678-.137-1.366-.21-2.054-.015-.106-.018-.222-.032-.338-.04-.392-.088-.794-.126-1.207-.088-.8-.165-1.608-.251-2.423-.073-.7-.135-1.4-.208-2.1-.13-1.311-.259-2.624-.382-3.892q-.149-1.43-.27-2.793c-.019-.211-.038-.413-.057-.614-.481-5.023-.858-9.158-.992-10.922,0,0-11.431-16.936-12.613-24.916s-1.078-16.375,3.716-19.783c11.336-8.073,8.015,4.93,13.089,10.32s12.861,14.195,17.267,16.958,8.273,14.25,8.273,14.25c3.171,9.333,4.961,24.205,6.767,28.69S379.122,280.587,379.122,280.587Z" transform="translate(-325.974 -202.39)" fill="#fff"/>
            <path id="Path_663" data-name="Path 663" d="M368.07,260.585s3.323,2.472,4.383,5.538" transform="translate(-319.966 -194.084)" fill="none" stroke="#263238" stroke-linecap="round" stroke-linejoin="round" stroke-width="1"/>
            <path id="Path_664" data-name="Path 664" d="M343.4,215.286c5.053,5.388,12.812,14.14,17.225,16.934-.622-.312-8.738-4.269-13.277.131-4.719,4.589-8.14,17.313-8.14,17.313s-11.431-16.936-12.613-24.916-1.078-16.375,3.716-19.783C341.65,196.892,338.329,209.9,343.4,215.286Z" transform="translate(-325.974 -202.39)" fill="#92e3c5" opacity="0.4"/>
            <path id="Path_665" data-name="Path 665" d="M345.5,304.192l-5.087,4.935c3.483-8.956,1.8-22.8,1.576-24.488v-.021a1.651,1.651,0,0,0-.049-.392c-.2-.748-.482-2.6-.8-5.117-.07-.562-.139-1.155-.216-1.78s-.153-1.281-.227-1.959c-.043-.319-.075-.657-.118-.986-.013-.137-.025-.274-.049-.4-.141-1.3-.288-2.667-.443-4.085-.039-.392-.079-.772-.128-1.164-.064-.678-.137-1.366-.21-2.053-.015-.106-.018-.222-.032-.338-.04-.392-.088-.794-.126-1.207-.088-.8-.165-1.608-.251-2.423-.073-.7-.135-1.4-.208-2.1-.13-1.311-.259-2.624-.382-3.892-.089-.952-.178-1.893-.27-2.793-.019-.211-.038-.413-.057-.614.318,1.5,6.112,29.081,9.42,35.509C349.094,291.259,347.931,297.528,345.5,304.192Z" transform="translate(-324.197 -195.121)" fill="#92e3c5" opacity="0.4"/>
            <path id="Path_666" data-name="Path 666" d="M379.123,280.591s-1.607-.931-3.412-5.41-3.6-19.356-6.767-28.69c0,0-3.872-11.48-8.277-14.246s-12.186-11.563-17.263-16.956-1.755-18.4-13.093-10.325c-4.786,3.406-4.885,11.808-3.71,19.783s12.615,24.917,12.615,24.917c.472,5.868,3.49,38.052,4.506,41.829" transform="translate(-325.974 -202.39)" fill="none" stroke="#263238" stroke-linecap="round" stroke-linejoin="round" stroke-width="1"/>
            <path id="Path_667" data-name="Path 667" d="M341.665,280.364s2.009,14.711-1.286,20.956" transform="translate(-323.918 -191.261)" fill="none" stroke="#263238" stroke-linecap="round" stroke-linejoin="round" stroke-width="1"/>
          </g>
        </g>
      </g>
    </g>
    <g id="Left_hand" data-name="Left hand" transform="translate(37.367 69.746)">
      <g id="Group_637" data-name="Group 637">
        <path id="Path_668" data-name="Path 668" d="M182.092,298.611s7.233,33.586-8.438,58.022-27.727,30.952-33.152,38.243-26.648,48.054-26.648,48.054l-24.8-73.443,24.8-90.858Z" transform="translate(-28.233 -37.137)" fill="rgba(0,0,0,0.7)" opacity="0.2"/>
        <g id="Group_634" data-name="Group 634" transform="translate(31.162)">
          <path id="Path_669" data-name="Path 669" d="M331.95,303.091,178.184,367.8l-15.85,6.674L132.464,303.5,63.1,138.686,232.715,67.3Z" transform="translate(-63.1 -67.3)" fill="#fff"/>
          <g id="Group_633" data-name="Group 633" clip-path="url(#clip-path-6)">
            <path id="Path_670" data-name="Path 670" d="M182.531,94.171l-73.217,30.814a2.7,2.7,0,1,0,2.095,4.977l73.217-30.813a2.7,2.7,0,1,0-2.095-4.978Z" transform="translate(-56.74 -63.495)" fill="#263238"/>
            <path id="Path_671" data-name="Path 671" d="M165.6,109.849,129,125.257a1.349,1.349,0,1,0,1.047,2.488l36.608-15.406a1.35,1.35,0,0,0-1.047-2.489Z" transform="translate(-53.813 -61.242)" fill="#263238"/>
            <g id="Group_619" data-name="Group 619" transform="translate(61.09 130.933)">
              <g id="Group_609" data-name="Group 609" transform="translate(0 11.526)">
                <path id="Path_672" data-name="Path 672" d="M225.059,191.966S226.6,204.1,222.087,206c-4.123,1.735-9.554-4.773-14.294-2.778s-1,19.19-5.574,21.114-10.083-5.14-14.027-3.48-1.56,10.505-5.626,12.217c-3.355,1.412-8.159-5.619-12-7.161a2.937,2.937,0,0,0-2.285-.114c-4.025,1.694-2.027,20.165-5.5,21.626a6.517,6.517,0,0,1-3.081.5,22.753,22.753,0,0,0-3.916-.369,5.06,5.06,0,0,0-1.465.374c-2.964,1.248-2.56,10.969-5.27,12.11s-5.385-.273-8.278.945-2.847,6.271-7.159,8.086l1.824,4.336,105.254-44.3" transform="translate(-114.126 -191.966)" fill="#bfbfbf" stroke="#263238" stroke-miterlimit="10" stroke-width="1"/>
                <path id="Path_673" data-name="Path 673" d="M116.56,218.921l21.31,50.636,110.2-46.378" transform="translate(-116.56 -188.119)" fill="none" stroke="#263238" stroke-linecap="round" stroke-linejoin="round" stroke-width="1"/>
                <path id="Path_674" data-name="Path 674" d="M233.528,210.056a17.938,17.938,0,0,0-1.3-1.4c-1.361-1.314-3.524-2.985-5.165-2.293-1.606.675-1.748,3.345-1.716,6.2.038,3.469.339,7.2-1.4,7.939-1.483.624-2.817-.314-4.181-1.339-1.562-1.168-3.169-2.444-5.092-1.634-3.25,1.368-2.259,5.6-3.4,9.222a7.009,7.009,0,0,1-4.275,4.618c-2.807,1.182-5.654.022-8.334-1.809-4.527-3.089-8.593-8.086-11.227-6.979-4.19,1.764.432,13.106-4.074,15-2.519,1.059-7.728-6.881-12.789-13.706-4-5.4-7.912-10.106-10.314-9.1-5.435,2.288,3.521,29.4-.43,31.066-.039.016-.081.033-.121.046a4.17,4.17,0,0,1-3.916-.369c-1.425-.807-2.583-1.951-4.157-1.288-2.909,1.224-1.2,11.855-4.411,13.205s-5.131-.6-8.741.915c-3.055,1.286-4.863,8.681-4.863,8.681l1.824,4.336,105.254-44.3" transform="translate(-114.126 -189.934)" fill="#757575" stroke="#263238" stroke-linecap="round" stroke-linejoin="round" stroke-width="1"/>
              </g>
              <path id="Path_675" data-name="Path 675" d="M206.231,241.224,169.622,256.63a1.35,1.35,0,0,0,1.047,2.489l36.608-15.406a1.35,1.35,0,1,0-1.047-2.489Z" transform="translate(-109.105 -173.425)" fill="#263238"/>
              <g id="Group_618" data-name="Group 618" transform="translate(121.928)">
                <g id="Group_613" data-name="Group 613" transform="translate(0)">
                  <rect id="Rectangle_212" data-name="Rectangle 212" width="5.269" height="5.269" rx="0.626" transform="matrix(0.922, -0.388, 0.388, 0.922, 0, 8.893)" fill="#bfbfbf" stroke="#263238" stroke-miterlimit="10" stroke-width="1"/>
                  <g id="Group_612" data-name="Group 612" transform="translate(7.852)">
                    <g id="Group_610" data-name="Group 610">
                      <path id="Path_676" data-name="Path 676" d="M245.6,183.043l-14.63,6.157a.606.606,0,1,1-.47-1.116l14.63-6.157a.606.606,0,0,1,.47,1.116Z" transform="translate(-230.13 -181.88)" fill="#263238"/>
                    </g>
                    <g id="Group_611" data-name="Group 611" transform="translate(1.022 4.306)">
                      <path id="Path_677" data-name="Path 677" d="M242.032,186.812l-10.167,4.278a.606.606,0,0,1-.47-1.116l10.167-4.278a.606.606,0,0,1,.47,1.116Z" transform="translate(-231.025 -185.648)" fill="#263238"/>
                    </g>
                  </g>
                </g>
                <g id="Group_617" data-name="Group 617" transform="translate(4.577 10.877)">
                  <rect id="Rectangle_213" data-name="Rectangle 213" width="5.269" height="5.269" rx="0.626" transform="matrix(0.922, -0.388, 0.388, 0.922, 0, 8.893)" fill="#757575" stroke="#263238" stroke-linecap="round" stroke-linejoin="round" stroke-width="1"/>
                  <g id="Group_616" data-name="Group 616" transform="translate(7.852)">
                    <g id="Group_614" data-name="Group 614">
                      <path id="Path_678" data-name="Path 678" d="M249.606,192.561l-14.63,6.157a.606.606,0,0,1-.47-1.116l14.63-6.157a.606.606,0,1,1,.47,1.116Z" transform="translate(-234.136 -191.398)" fill="#263238"/>
                    </g>
                    <g id="Group_615" data-name="Group 615" transform="translate(1.022 4.306)">
                      <path id="Path_679" data-name="Path 679" d="M246.037,196.33l-10.166,4.278a.606.606,0,0,1-.47-1.116l10.166-4.278a.606.606,0,0,1,.47,1.116Z" transform="translate(-235.03 -195.166)" fill="#263238"/>
                    </g>
                  </g>
                </g>
              </g>
            </g>
            <g id="Group_620" data-name="Group 620" transform="translate(94.916 187.708)">
              <path id="Path_680" data-name="Path 680" d="M279.456,231.669,160.623,281.68a1.35,1.35,0,1,0,1.047,2.489L280.5,234.158a1.35,1.35,0,1,0-1.048-2.489Z" transform="translate(-144.215 -231.563)" fill="#263238"/>
              <path id="Path_681" data-name="Path 681" d="M285.168,239.5,146.987,297.653a1.35,1.35,0,0,0,1.048,2.489l138.18-58.153a1.35,1.35,0,1,0-1.047-2.489Z" transform="translate(-146.161 -230.446)" fill="#263238"/>
              <path id="Path_682" data-name="Path 682" d="M288.463,247.33l-138.18,58.152a1.35,1.35,0,0,0,1.047,2.489l138.181-58.154a1.35,1.35,0,1,0-1.048-2.488Z" transform="translate(-145.691 -229.328)" fill="#263238"/>
              <path id="Path_683" data-name="Path 683" d="M291.759,255.16,153.578,313.314a1.35,1.35,0,0,0,1.048,2.488l138.18-58.152a1.35,1.35,0,1,0-1.047-2.489Z" transform="translate(-145.22 -228.21)" fill="#263238"/>
              <path id="Path_684" data-name="Path 684" d="M237.013,284.366l-80.138,33.726a1.35,1.35,0,0,0,1.047,2.489l80.14-33.727a1.35,1.35,0,1,0-1.048-2.489Z" transform="translate(-144.75 -224.042)" fill="#263238"/>
            </g>
            <g id="Group_632" data-name="Group 632" transform="translate(32.11 57.675)">
              <g id="Group_622" data-name="Group 622" transform="translate(0 15.921)">
                <g id="Group_621" data-name="Group 621" transform="translate(19.486)">
                  <path id="Path_685" data-name="Path 685" d="M199.7,131.7s1.545,12.13-2.972,14.03c-4.123,1.736-9.554-4.773-14.294-2.778s-1,19.19-5.574,21.115-10.083-5.14-14.027-3.481-1.56,10.505-5.626,12.217c-3.356,1.412-8.159-5.619-12-7.161a2.936,2.936,0,0,0-2.285-.114c-4.025,1.694-2.027,20.165-5.5,21.626a6.488,6.488,0,0,1-3.081.5,22.975,22.975,0,0,0-3.916-.369,5.063,5.063,0,0,0-1.465.375c-2.964,1.248-2.56,10.968-5.27,12.108s-5.385-.273-8.278.945-2.847,6.271-7.159,8.087l1.824,4.334,105.254-44.3" transform="translate(-108.251 -131.704)" fill="#bfbfbf" stroke="#263238" stroke-miterlimit="10" stroke-width="1"/>
                  <path id="Path_686" data-name="Path 686" d="M206.448,145.85s.964,5.878-1.363,6.859c-1.93.812-3.116-.319-5.151-.394a6.768,6.768,0,0,0-2.944.6c-1.86.783-2.312,3.293-2.642,5.995-.406,3.321-.623,6.928-3.053,7.952-1.7.716-3.541.3-5.443-.366-3.021-1.054-6.2-2.72-9.27-1.428-1.487.626-2.53,2.243-3.339,4.238-1.907,4.721-2.507,11.556-4.573,12.425-2.938,1.238-8.318-3.813-10.927-2.715s-1.539,5.628-3.656,6.519-3.324-1.737-7.051-.169-1.912,7.071-7.163,9.281-7.559-1.856-12.643.285-4.16,5.99-7.74,7.5-5.1-1.112-7.662-.032c-2.485,1.046-3.169,5.135-3.209,5.39l1.4,3.333,105.254-44.3" transform="translate(-108.198 -129.685)" fill="#92e3a9" stroke="#263238" stroke-miterlimit="10" stroke-width="1"/>
                </g>
                <path id="Path_687" data-name="Path 687" d="M91.2,158.66l21.31,50.636,110.2-46.378" transform="translate(-91.199 -127.857)" fill="none" stroke="#263238" stroke-linecap="round" stroke-linejoin="round" stroke-width="1"/>
              </g>
              <path id="Path_688" data-name="Path 688" d="M180.58,180.274l-36.608,15.407a1.349,1.349,0,1,0,1.047,2.488l36.61-15.406a1.35,1.35,0,0,0-1.048-2.489Z" transform="translate(-83.785 -108.865)" fill="#263238"/>
              <g id="Group_631" data-name="Group 631" transform="translate(120.078)">
                <g id="Group_626" data-name="Group 626" transform="translate(0)">
                  <rect id="Rectangle_214" data-name="Rectangle 214" width="5.269" height="5.269" rx="0.626" transform="matrix(0.922, -0.388, 0.388, 0.922, 0, 8.893)" fill="#bfbfbf" stroke="#263238" stroke-miterlimit="10" stroke-width="1"/>
                  <g id="Group_625" data-name="Group 625" transform="translate(7.852)">
                    <g id="Group_623" data-name="Group 623">
                      <path id="Path_689" data-name="Path 689" d="M218.621,118.935l-14.63,6.157a.606.606,0,1,1-.47-1.116l14.63-6.157a.606.606,0,1,1,.47,1.116Z" transform="translate(-203.151 -117.771)" fill="#263238"/>
                    </g>
                    <g id="Group_624" data-name="Group 624" transform="translate(1.022 4.307)">
                      <path id="Path_690" data-name="Path 690" d="M215.052,122.7l-10.167,4.278a.605.605,0,1,1-.47-1.115l10.167-4.278a.605.605,0,1,1,.47,1.115Z" transform="translate(-204.045 -121.54)" fill="#263238"/>
                    </g>
                  </g>
                </g>
                <g id="Group_630" data-name="Group 630" transform="translate(4.577 10.876)">
                  <rect id="Rectangle_215" data-name="Rectangle 215" width="5.269" height="5.269" rx="0.626" transform="matrix(0.922, -0.388, 0.388, 0.922, 0, 8.893)" fill="#92e3a9" stroke="#263238" stroke-miterlimit="10" stroke-width="1"/>
                  <g id="Group_629" data-name="Group 629" transform="translate(7.852)">
                    <g id="Group_627" data-name="Group 627">
                      <path id="Path_691" data-name="Path 691" d="M222.626,128.453,208,134.61a.606.606,0,1,1-.47-1.116l14.629-6.157a.606.606,0,1,1,.47,1.116Z" transform="translate(-207.156 -127.289)" fill="#263238"/>
                    </g>
                    <g id="Group_628" data-name="Group 628" transform="translate(1.022 4.307)">
                      <path id="Path_692" data-name="Path 692" d="M219.057,132.221,208.891,136.5a.605.605,0,1,1-.47-1.115l10.166-4.278a.605.605,0,1,1,.47,1.115Z" transform="translate(-208.05 -131.058)" fill="#263238"/>
                    </g>
                  </g>
                </g>
              </g>
            </g>
            <path id="Path_693" data-name="Path 693" d="M169.521,344.941l-15.85,6.674L123.8,280.639a17.585,17.585,0,0,0,4.994-9.793c1.783-9.507.526-40.075,24.329-43.229s3.725,50.371,4.822,60.576C158.95,297.483,172.515,324.486,169.521,344.941Z" transform="translate(-54.436 -44.437)" fill="rgba(0,0,0,0.7)" opacity="0.2"/>
          </g>
          <path id="Path_695" data-name="Path 695" d="M331.95,303.091,178.184,367.8l-15.85,6.674L132.464,303.5,63.1,138.686,232.715,67.3Z" transform="translate(-63.1 -67.3)" fill="none" stroke="#263238" stroke-linecap="round" stroke-linejoin="round" stroke-width="1"/>
        </g>
        <g id="Group_636" data-name="Group 636" transform="translate(0 163.67)">
          <path id="Path_696" data-name="Path 696" d="M172.5,294.482c2.667-9.124,13.09-38.412,11.722-51.36a12.656,12.656,0,0,0-.729-3.153c-3.658-9.669-18.609-8.733-24.348-.721-6.3,8.812-11.455,24.667-11.894,34.317a29.839,29.839,0,0,1-4.522,13.549c-.009.022-.009.032-.019.042a33.47,33.47,0,0,1-3.025,4.3L105.58,210.527a46.189,46.189,0,0,0-8.925,9.961,16.294,16.294,0,0,0-2.621,6.936c-.7,7.971-9.727,40.72-13.481,54.541-.072.3-.155.574-.227.85-3.609,13.28,5.919,62.6,3.2,76.926S79.1,373.75,78.705,383.923c-.29,7.429-10.918,30.013-22.823,53.2C49.056,450.406,41.806,463.878,35.83,474.8l87.213-3.621c1.512-10.6,3.06-21.782,4.476-32.607a121.8,121.8,0,0,1,2.605-13.386v-.01c1.926-7.769,4.269-14.8,5.7-18.913,2.233-6.427,4.551-18.393,4.551-18.393,10.142-10.736,23.443-27.612,27.3-39.044.01-.021.019-.053.029-.074.972-2.887,1.329-5.423.868-7.421a34.378,34.378,0,0,1-.69-6.243c.01-.01.01-.01,0-.021C167.434,322.686,170.265,302.085,172.5,294.482Z" transform="translate(-35.83 -210.527)" fill="#fff"/>
          <path id="Path_697" data-name="Path 697" d="M135.115,287.157c-2.7,5.428-5.963,10.7-8.043,16.784s-4.313,6.944-10.417,11.7-10.559-3.081-10.559-3.081,8.076-8.392,5.393-13.06-12.736-16.3-12.14-22.711-6.1-20.786-6.1-20.786,15.228-8.942,12.273-19.386c-1.614-5.721-9.586-11.808-16.468-16.133a46.189,46.189,0,0,1,8.925-9.961l34.107,80.927A33.469,33.469,0,0,0,135.115,287.157Z" transform="translate(-28.233 -210.527)" fill="#92e3c5" opacity="0.4"/>
          <path id="Path_698" data-name="Path 698" d="M84.894,327.875c.207.686,5.163,17.065.982,23.889-4.28,6.974-8.48,15.867-6.436,25.131,1.632,7.4-12.08,34.147-26.062,51.3C65.283,405.013,75.91,382.43,76.2,375c.4-10.174,2.08-9.865,4.815-24.181s-6.8-63.647-3.2-76.926c.072-.276.155-.553.227-.85,2.663,15.047,8.865,45.021,10.568,54.657C90.785,339.973,85.124,328.359,84.894,327.875Z" transform="translate(-33.325 -201.604)" fill="#92e3c5" opacity="0.4"/>
          <path id="Path_699" data-name="Path 699" d="M108.44,418.337c10.131-43.636,44.245-77.1,48.864-86.789-3.853,11.432-17.155,28.308-27.3,39.044,0,0-2.319,11.967-4.551,18.393-1.426,4.114-3.77,11.144-5.7,18.913v.01C109.857,419.58,108.44,418.337,108.44,418.337Z" transform="translate(-25.466 -193.254)" fill="#92e3c5" opacity="0.4"/>
          <path id="Path_700" data-name="Path 700" d="M157.409,290.874c-2.236,7.6-5.068,28.2-4.628,40.581-1.793-7.772-5.249-17.639-5.82-31.386-.968-23.312,12.236-14.951,7.631-26.431s-17.733,3.237-11.264-21.076c4.725-17.749,18.167-17.582,25.074-16.2a12.656,12.656,0,0,1,.729,3.153C170.5,252.463,160.076,281.751,157.409,290.874Z" transform="translate(-20.738 -206.919)" fill="#92e3c5" opacity="0.4"/>
          <g id="Group_635" data-name="Group 635" transform="translate(13.263)">
            <path id="Path_701" data-name="Path 701" d="M47.436,450.727c10.939-19.982,21.571-40.538,29.236-62.712.919-3.189-.3-7.341.614-10.53,10.359-28.791-1.39-58.766.536-88.259,1.618-11.622,5.334-23.33,9.049-35.04,1.75-8.476,2.405-17.957,5.2-26.477,2.885-6.422,5.726-13.893,11.85-17.183,11.655,26.711,23.274,53.54,34.107,80.927,4.893-2.829,5.681-9.165,6.511-14.451,2.623-12.714,5.29-24.38,10.1-35.084,4.894-8.607,17.348-12.275,24.993-5.239a11.914,11.914,0,0,1,3.494,8.259c-1.488,14.768-6.12,29.666-10.8,43.515-1.836,6.38-3.716,11.71-4.5,18.045.088,2.1.131,3.146.218,5.243-2.711,10.617-.222,19.968-.834,30.5-2.362,19.006-17.568,32.243-28.537,46.354-2.711,10.617-5.421,21.234-9.18,31.895-4.59,15.947-6.034,31.763-7.6,47.136" transform="translate(-47.436 -210.527)" fill="none" stroke="#263238" stroke-linecap="round" stroke-linejoin="round" stroke-width="1"/>
            <path id="Path_702" data-name="Path 702" d="M128.893,281.346a71.357,71.357,0,0,0-5.022,12.488c-1.43,5.6-8.665,4.793-12.4,8.272" transform="translate(-38.296 -200.419)" fill="none" stroke="#263238" stroke-linecap="round" stroke-linejoin="round" stroke-width="1"/>
            <path id="Path_703" data-name="Path 703" d="M102.843,272.719s9.84,3.469,15.566,7.941,9.966,5.564,9.966,5.564" transform="translate(-39.528 -201.65)" fill="none" stroke="#263238" stroke-linecap="round" stroke-linejoin="round" stroke-width="1"/>
            <path id="Path_704" data-name="Path 704" d="M97.35,252.5s7.94,2.226,13.828-.574a52.818,52.818,0,0,1,1.492-8.441" transform="translate(-40.312 -205.823)" fill="none" stroke="#263238" stroke-linecap="round" stroke-linejoin="round" stroke-width="1"/>
            <path id="Path_705" data-name="Path 705" d="M111.106,251.877s.082,1.106,4.131,1.153" transform="translate(-38.348 -204.625)" fill="none" stroke="#263238" stroke-linecap="round" stroke-linejoin="round" stroke-width="1"/>
            <path id="Path_706" data-name="Path 706" d="M128.871,365.72a54.125,54.125,0,0,0-12.48,19.687" transform="translate(-37.594 -188.376)" fill="none" stroke="#263238" stroke-linecap="round" stroke-linejoin="round" stroke-width="1"/>
            <path id="Path_707" data-name="Path 707" d="M74.356,275.924c-.355,6.843,7.683,31.169,10.123,43.257s3.35,20.639,3.35,20.639" transform="translate(-43.595 -201.193)" fill="none" stroke="#263238" stroke-linecap="round" stroke-linejoin="round" stroke-width="1"/>
          </g>
        </g>
      </g>
    </g>
  </g>
</svg>
