<svg xmlns="http://www.w3.org/2000/svg" xmlns:xlink="http://www.w3.org/1999/xlink" width="165.81" height="128.93" viewBox="0 0 165.81 128.93">
  <defs>
    <linearGradient id="linear-gradient" x2="1" gradientUnits="objectBoundingBox">
      <stop offset="0" stop-color="gray" stop-opacity="0.251"/>
      <stop offset="0.54" stop-color="gray" stop-opacity="0.122"/>
      <stop offset="1" stop-color="gray" stop-opacity="0.102"/>
    </linearGradient>
  </defs>
  <g id="Group_702" data-name="Group 702" transform="translate(0.05 0)">
    <path id="Path_716" data-name="Path 716" d="M317.233,84.764a40.288,40.288,0,0,0-6.579-10.448l-91.272-.9L294.53,62.9a42.8,42.8,0,0,0-15.248-3.016,42.847,42.847,0,0,0-51.048-1.722A42.662,42.662,0,0,0,208.7,53.469c-20.28,0-37.179,14-40.97,32.566Z" transform="translate(-154.672 -50.56)" fill="#2ae98e" opacity="0.1"/>
    <path id="Path_717" data-name="Path 717" d="M252.08,283.255a39.225,39.225,0,0,0-2.844-14.695L91.1,285.11a39.4,39.4,0,0,0-3.712,9.333l48.969,7.28-50.088,5.31c1.507,21.017,19.578,37.614,41.652,37.614a42.328,42.328,0,0,0,28.69-11.064,42.328,42.328,0,0,0,28.93,11.285,41.872,41.872,0,0,0,37.745-23.14,41.1,41.1,0,0,0,27.45-28.287l-61.921-9.584H252.08C252.077,283.655,252.08,283.456,252.08,283.255Z" transform="translate(-86.32 -233.104)" fill="#2ae98e" opacity="0.1"/>
    <ellipse id="Ellipse_38" data-name="Ellipse 38" cx="36.528" cy="5.988" rx="36.528" ry="5.988" transform="translate(9.561 116.955)" fill="#18a05f"/>
    <path id="Path_718" data-name="Path 718" d="M330.392,216.18a5.585,5.585,0,0,1-3.329-.391,6.451,6.451,0,0,0-2.652-1.9c-1.213-.226-1.683,1.752-2.4,2.26-.5.357-4.1.1-6.276-.089l-.375-.034c-.037-.027-.074-.057-.114-.082a7.883,7.883,0,0,1-2.528-1.217,9.2,9.2,0,0,0-4.255-1.568c-.9.061-3.577.207-3.577.207s-1.048-1.2-1.521-1.072a11.508,11.508,0,0,1-2.118-.01s-.452-1.166-.9-2.837a2.959,2.959,0,0,0-1.6-1.687c.618-2.1-.483-8.086-3.9-9.257-.745-.255-1.126-1.1-1.76-1.568a2.807,2.807,0,0,1-1.043-3.161,65.576,65.576,0,0,1,2.24-6.373l1.189-2.383a3.327,3.327,0,0,1-.377.473c.161-.207.322-.41.46-.581a9.972,9.972,0,0,0,3.807,1.053,12.425,12.425,0,0,0,3.2,1.006c1.192-.042,4.234,1.485,4.234,1.485s7.317,2.1,8.837,2.269,2.261-1.815,2.261-1.815.79-3.912-.613-4.949-2.219,3.714-2.219,3.714l-9.573-3.462-.59-.312a5.387,5.387,0,0,0,1.073-1.676,1.711,1.711,0,0,1,.636-.977.9.9,0,0,1,.3-.089,2.045,2.045,0,0,1,.262,0c1.661.1,3.088,1.413,4.752,1.419h.183a1.6,1.6,0,0,0,.89-.274,1.4,1.4,0,0,0,.512-.991,1.693,1.693,0,0,1-.08.152,2,2,0,0,0,0-.719,5.845,5.845,0,0,0-.661-1.587.809.809,0,0,1-.122-.4.547.547,0,0,1,.208-.376.448.448,0,0,0,.01.045,2.1,2.1,0,0,1,.415-.305,3.563,3.563,0,0,0,1.551-2.372c-.04.119-.089.237-.14.354a3.516,3.516,0,0,0-.169-2.48,1.4,1.4,0,0,0-.428-.564c-.6-.423-1.406.027-2.139.076a3.716,3.716,0,0,1-1.849-.539,12.688,12.688,0,0,1-2.8-1.776,37.149,37.149,0,0,1-2.481-2.856,5.044,5.044,0,0,0-3.193-1.862c-2.29-.178-4.449,2.1-6.626,1.356a6.47,6.47,0,0,1-2.5-2.191,3.39,3.39,0,0,0-2.861-1.476c-.769.129-1.435.728-2.214.706a4.262,4.262,0,0,1-1.171-.323c-.935-.315-2.216-.161-2.549.772a1.38,1.38,0,0,0,.121,1.158,1.749,1.749,0,0,0-.132.218.748.748,0,0,0-.079.484,5,5,0,0,0,1.963,8.512c.031.118.061.236.09.355a6.367,6.367,0,0,1,.013,3.806c-.029.061-.06.121-.093.179l-.04.018.018.018h0l-.018-.018h0l-.058-.06h0l-.351-.368c-.019-.384-.235-1.414-1.735-3.326-1.974-2.517-2.345-6.683-2.345-6.683s-.492-2.144,0-2.763,1.316-7.427,1.316-7.427l1.361-3.833s6.618-6.765,3.862-7.589c-1.871-.56-4.1,2.327-5.342,4.235a7.568,7.568,0,0,0-1.152,3.107l-3.741,10.271a8.085,8.085,0,0,0,0,3.383c.37,2.144,1.192,5.94,1.192,5.94l2.092,5.32a13.219,13.219,0,0,1,.7,3.3,7.784,7.784,0,0,0-.692,1.28l-.2.323-.014.131c-.137.292-.232.5-.232.5s-1.165,3.451-.192,5.567a9.554,9.554,0,0,1,1.012,3.1l.726,3.136.3,2.745,2.61,6.476,2.4,3.444s-.225,2.537-.719,2.887-.267,2.165-.267,2.165l-.309,4.763a7.478,7.478,0,0,0-1.027,3.733,7.933,7.933,0,0,1-.412,2.971,7.161,7.161,0,0,0,.288,2.826c.449.888-.719,1.815-.719,1.815l1,3.454-.391,4.372s.182.05.483.126l-.061.313-1.635,8.283a22.173,22.173,0,0,0-.924,2.8l-2.858,5.178s-2.385,2.372-1.254,2.6,4.42-1.815,4.42-1.815,2.713-2.929,3.781-3.2,2.253-1.033,1.912-2.146-1.126-2.8-.37-4.6c.483-1.13,1.509-4.2,2.214-6.339.039-.118.076-.231.113-.341a2.845,2.845,0,0,0,.55-.1,4.18,4.18,0,0,1,2.631-.161l3.083-12.518.677-6.281,4.317,3.614a5.179,5.179,0,0,0,3.025,1.2,29.4,29.4,0,0,1,6.276.943l.8-3.362s2.3.084,2.8-.7a9.751,9.751,0,0,1,.562-.807l.373-.058,10.184-1.581a12.862,12.862,0,0,0,4.481-1.28l1.583-.308s2.362-.475,2.575-.867S332.038,215.77,330.392,216.18Z" transform="translate(-246.387 -131.952)" fill="url(#linear-gradient)"/>
    <path id="Path_719" data-name="Path 719" d="M320.182,254.3c.322-.908,1.58-1.06,2.5-.753a4.335,4.335,0,0,0,1.146.322c.763.023,1.414-.563,2.167-.687a3.309,3.309,0,0,1,2.8,1.437,6.338,6.338,0,0,0,2.448,2.139c2.129.718,4.243-1.5,6.483-1.324a4.955,4.955,0,0,1,3.12,1.817,36.462,36.462,0,0,0,2.428,2.785,12.169,12.169,0,0,0,2.744,1.738,3.622,3.622,0,0,0,1.809.525c.718-.047,1.506-.483,2.092-.074a1.366,1.366,0,0,1,.418.55,3.537,3.537,0,0,1-1.271,4.378c-.246.153-.546.322-.56.616a.775.775,0,0,0,.119.388,5.577,5.577,0,0,1,.644,1.548,1.561,1.561,0,0,1-.483,1.522,1.639,1.639,0,0,1-.993.272c-1.628-.008-3.025-1.287-4.65-1.385a1.174,1.174,0,0,0-.61.093,1.646,1.646,0,0,0-.623.953,6.124,6.124,0,0,1-4.618,3.548,9.152,9.152,0,0,1-5.865-1.105,1.383,1.383,0,0,1-.356-.245,1.521,1.521,0,0,1-.307-.623c-.547-1.73-1.287-3.54-2.8-4.539-.983-.644-2.317-1.006-2.763-2.092a7.725,7.725,0,0,1-.175-2.208,3.394,3.394,0,0,0-2.242-2.829,1.744,1.744,0,0,1-.747-.352,1.39,1.39,0,0,1-.29-.684c-.24-1.089-.4-2.24-.734-3.3C320.749,255.9,319.84,255.258,320.182,254.3Z" transform="translate(-282.393 -220.443)" fill="#663d5b"/>
    <g id="Group_701" data-name="Group 701" transform="translate(37.77 33.736)" opacity="0.1">
      <path id="Path_720" data-name="Path 720" d="M349.268,276.033a1.645,1.645,0,0,1-.993.266c-1.627,0-3.024-1.287-4.649-1.384a1.174,1.174,0,0,0-.61.092,1.638,1.638,0,0,0-.623.953,6.126,6.126,0,0,1-4.62,3.55,9.146,9.146,0,0,1-5.864-1.106,1.4,1.4,0,0,1-.356-.245,1.529,1.529,0,0,1-.307-.623c-.547-1.731-1.287-3.54-2.8-4.541-.985-.652-2.319-1-2.763-2.092a7.619,7.619,0,0,1-.175-2.208,3.39,3.39,0,0,0-2.243-2.829,1.763,1.763,0,0,1-.747-.352,1.379,1.379,0,0,1-.288-.685c-.241-1.088-.4-2.24-.734-3.3-.225-.711-.935-1.287-.9-2.047a1.077,1.077,0,0,0-.055.124c-.344.954.566,1.593.825,2.414.335,1.062.492,2.214.734,3.3a1.379,1.379,0,0,0,.288.686,1.764,1.764,0,0,0,.747.352,3.391,3.391,0,0,1,2.243,2.831,7.62,7.62,0,0,0,.175,2.208c.444,1.093,1.778,1.448,2.763,2.092,1.513,1,2.253,2.81,2.8,4.541a1.531,1.531,0,0,0,.307.623,1.4,1.4,0,0,0,.356.245A9.109,9.109,0,0,0,337.645,280a6.12,6.12,0,0,0,4.62-3.55,1.669,1.669,0,0,1,.623-.953,1.174,1.174,0,0,1,.61-.092c1.625.1,3.022,1.377,4.649,1.384a1.645,1.645,0,0,0,.993-.27,1.364,1.364,0,0,0,.5-.965A1.2,1.2,0,0,1,349.268,276.033Z" transform="translate(-320.463 -259.48)"/>
      <path id="Path_721" data-name="Path 721" d="M498.281,327.51c-.246.161-.547.322-.562.616a.489.489,0,0,0,.027.174,2.024,2.024,0,0,1,.406-.3,3.468,3.468,0,0,0,1.517-2.312A3.39,3.39,0,0,1,498.281,327.51Z" transform="translate(-469.196 -315.036)"/>
    </g>
    <path id="Path_722" data-name="Path 722" d="M295.48,710.468c-.745,1.751.021,3.4.362,4.486s-.824,1.83-1.87,2.092-3.7,3.117-3.7,3.117-3.218,1.991-4.325,1.77,1.226-2.534,1.226-2.534l2.8-5.05a21.69,21.69,0,0,1,.9-2.736l1.6-8.078.212-1.073,5.671-.343s-.3.92-.708,2.164C296.957,706.376,295.947,709.376,295.48,710.468Z" transform="translate(-253.513 -596.898)" fill="#cc818c"/>
    <path id="Path_723" data-name="Path 723" d="M525,560.33c-.2.383-2.513.845-2.513.845l-1.55.3a12.61,12.61,0,0,1-4.385,1.249l-9.967,1.543-1.337.208v-5.655s.673.071,1.625.161c2.129.187,5.651.435,6.139.087.7-.5,1.167-2.433,2.353-2.211a6.338,6.338,0,0,1,2.6,1.85,5.487,5.487,0,0,0,3.259.381C522.83,558.687,525.2,559.947,525,560.33Z" transform="translate(-437.656 -475.118)" fill="#cc818c"/>
    <path id="Path_724" data-name="Path 724" d="M506.94,574.159s-.143.161-.352.436l-1.337.208V569.15s.673.071,1.625.161C508.475,570.574,506.94,574.159,506.94,574.159Z" transform="translate(-437.68 -485.446)" opacity="0.1"/>
    <path id="Path_725" data-name="Path 725" d="M396.13,528.532,401.484,533a5.081,5.081,0,0,0,2.961,1.17,28.919,28.919,0,0,1,6.147.92l.785-3.279s2.253.08,2.736-.684a11.087,11.087,0,0,1,.945-1.287s1.63-3.8-.22-4.967a7.575,7.575,0,0,1-2.475-1.188,8.941,8.941,0,0,0-4.163-1.529c-.885.059-3.5.2-3.5.2s-1.027-1.167-1.488-1.046a11.553,11.553,0,0,1-2.073,0s-.443-1.138-.885-2.768-3.077-2.213-3.077-2.213Z" transform="translate(-346.153 -441.124)" fill="#565987"/>
    <path id="Path_726" data-name="Path 726" d="M396.13,528.532,401.484,533a5.081,5.081,0,0,0,2.961,1.17,28.919,28.919,0,0,1,6.147.92l.785-3.279s2.253.08,2.736-.684a11.087,11.087,0,0,1,.945-1.287s1.63-3.8-.22-4.967a7.575,7.575,0,0,1-2.475-1.188,8.941,8.941,0,0,0-4.163-1.529c-.885.059-3.5.2-3.5.2s-1.027-1.167-1.488-1.046a11.553,11.553,0,0,1-2.073,0s-.443-1.138-.885-2.768-3.077-2.213-3.077-2.213Z" transform="translate(-346.153 -441.124)" opacity="0.1"/>
    <path id="Path_727" data-name="Path 727" d="M312.445,309.482l-.592.111h-.037l-.087.016-1.014.188-.312.37-.013.013-1,1.188-.845.829-.008.01-.714.7-1.208,1.2-.2.5-.441,1.109-.114.282-1.207,1.287-.771,1.649-1.8,1.046-1.939-1.006-.885-1.287.2-1.844.04-.368.591-.948.536-.863,1.046-1.488,2.011-1.368.36-.1.4-.106a1.483,1.483,0,0,0,.085-.137,1.654,1.654,0,0,0,.092-.175,6.184,6.184,0,0,0-.013-3.711,18.669,18.669,0,0,0-.928-2.816l5.31-.764s-.052,1.03-.052,2.636h0c0,.4,0,.838.011,1.3.026,1.448,1.371,2.076,2.386,2.343a6.7,6.7,0,0,0,.795.161C312.323,309.475,312.445,309.482,312.445,309.482Z" transform="translate(-264.919 -262.242)" fill="#cc818c"/>
    <path id="Path_728" data-name="Path 728" d="M288.764,185.905s.241-.966-1.69-3.419-2.293-6.517-2.293-6.517-.483-2.092,0-2.7,1.287-7.241,1.287-7.241l1.328-3.741s6.477-6.6,3.782-7.4c-1.831-.547-4.023,2.271-5.228,4.131a7.362,7.362,0,0,0-1.126,3.03h0l-3.662,10.017a7.859,7.859,0,0,0,0,3.3c.362,2.092,1.167,5.793,1.167,5.793l2.052,5.194s1.08,3.234.52,3.629l1.25-1.849Z" transform="translate(-249.617 -138.043)" fill="#cc818c"/>
    <path id="Path_729" data-name="Path 729" d="M370.576,353.794s-.724,1.931-2.213,1.77-8.649-2.213-8.649-2.213-2.977-1.488-4.144-1.448-6.517-2.454-6.517-2.454-.377.5-.8,1.017a6.229,6.229,0,0,1-1.094,1.2c-.241.04-3.983.563-3.983.563l-2.534-1.167-.241-1.051-.114-.483.562-.626.739-.822,1.385-1.58.008-.01,1.849-2.01.013-.013,1.184-.483.229-.093h.037a2.224,2.224,0,0,1,1.414.338,4.055,4.055,0,0,0,1.653.512,5.169,5.169,0,0,1,3.111,1.332l5.954,3.133,9.373,3.379s.8-4.626,2.172-3.621S370.576,353.794,370.576,353.794Z" transform="translate(-299.318 -296.522)" fill="#cc818c"/>
    <path id="Path_730" data-name="Path 730" d="M313.821,347.561a6.228,6.228,0,0,1-1.094,1.2c-.241.04-3.983.563-3.983.563l-2.534-1.167-.241-1.051-.114.282-1.207,1.287-.771,1.649-1.8,1.046-1.939-1.006-.885-1.287.2-1.844c.1-.219.378-.814.631-1.316a4.025,4.025,0,0,1,.447-.782,4.315,4.315,0,0,0,.33-1.247,4.1,4.1,0,0,1,3.178-2.43l.391.367.171.177c-.069-.011.013-.161-.076-.137-.142.04-.2.254-.386.372a19.747,19.747,0,0,0-3.147,2.858c-.148.172-.3.341-.457.505a2.88,2.88,0,0,0-.721,2.174c-.22.965,1.73,1.69,1.73,1.69.544-.9,4.224-3.4,4.224-3.4l2.478-2.776a7.358,7.358,0,0,1,3.086-2.605c.368-.18.61-.27.61-.27l.927.4a1.236,1.236,0,0,0-.742.032,2.535,2.535,0,0,0-.4.161c-.048.024-.1.05-.142.077a4.433,4.433,0,0,0-.711.513l-2.082,2.274a2.735,2.735,0,0,0,1.962,4.584h.021A3.234,3.234,0,0,0,313.821,347.561Z" transform="translate(-264.918 -293.619)" opacity="0.1"/>
    <path id="Path_731" data-name="Path 731" d="M333.943,702.15s-.3.92-.708,2.164a20.093,20.093,0,0,1-5.175-.748l.212-1.073Z" transform="translate(-289.084 -596.923)" opacity="0.1"/>
    <path id="Path_732" data-name="Path 732" d="M301.643,342.871l-.515-.528a4.507,4.507,0,0,0-3.012,2.24,9.3,9.3,0,0,1-.7,1.595,20.228,20.228,0,0,0-1.118,2.187s-1.139,3.365-.188,5.431a9.426,9.426,0,0,1,.993,3.017l.711,3.057.294,2.681,2.555,6.316,2.353,3.352s-.22,2.473-.7,2.816-.262,2.111-.262,2.111l-.3,4.647a7.256,7.256,0,0,0-1.006,3.64,7.7,7.7,0,0,1-.4,2.9,6.9,6.9,0,0,0,.282,2.757c.443.866-.7,1.77-.7,1.77l.986,3.358-.383,4.264s4.546,1.268,6.235.745a4.124,4.124,0,0,1,2.575-.161l3.017-12.215,1.046-9.594s.061-6.8.966-8.871c.775-1.77-.241-8.076-3.735-9.267-.729-.248-1.1-1.075-1.722-1.529a2.73,2.73,0,0,1-1.02-3.083,62.145,62.145,0,0,1,2.193-6.215l1.162-2.314a3.466,3.466,0,0,1-3.576,1.521h-.021a2.735,2.735,0,0,1-1.961-4.584l2.082-2.275s1.147-1.057,1.992-.79l-.925-.4a8.021,8.021,0,0,0-3.7,2.876l-2.478,2.776s-3.677,2.483-4.221,3.394c0,0-1.95-.724-1.73-1.69a2.891,2.891,0,0,1,.721-2.176c.161-.161.309-.332.457-.5C298.666,345.2,300.86,342.741,301.643,342.871Z" transform="translate(-261.96 -294.385)" fill="#565987"/>
    <path id="Path_733" data-name="Path 733" d="M332.778,453.28s-.584,4.245-.142,5.109Z" transform="translate(-292.787 -388.279)" opacity="0.1"/>
    <path id="Path_734" data-name="Path 734" d="M336.75,463.53l.624,2.435A3.339,3.339,0,0,0,336.75,463.53Z" transform="translate(-296.376 -396.879)" opacity="0.1"/>
    <path id="Path_735" data-name="Path 735" d="M313.75,460s1.247,6.2,2.615,8.067" transform="translate(-277.086 -393.909)" opacity="0.1"/>
    <path id="Path_736" data-name="Path 736" d="M352.958,506.154s-2.132,2.011-2.958,1.865c0,0,3.279.142,4.3-1.588A1.762,1.762,0,0,0,352.958,506.154Z" transform="translate(-307.484 -432.583)" opacity="0.1"/>
    <path id="Path_737" data-name="Path 737" d="M369.658,505.41a34.476,34.476,0,0,1-3.278,2.172S369.336,506.738,369.658,505.41Z" transform="translate(-321.221 -432)" opacity="0.1"/>
    <path id="Path_738" data-name="Path 738" d="M318.552,413.53s-1.368,1.751-2.052,1.55A2.055,2.055,0,0,0,318.552,413.53Z" transform="translate(-279.393 -354.95)" opacity="0.1"/>
    <path id="Path_739" data-name="Path 739" d="M338.88,407.267s2.977-4.042,4.385-3.881C343.265,403.386,339.886,406.322,338.88,407.267Z" transform="translate(-298.159 -346.435)" opacity="0.1"/>
    <path id="Path_740" data-name="Path 740" d="M355.611,418.39s-1.891.948-1.69,1.224S355.611,418.39,355.611,418.39Z" transform="translate(-310.763 -359.026)" opacity="0.1"/>
    <path id="Path_741" data-name="Path 741" d="M337.028,611.28s-6.316,3.682-6.9,3.862a2.46,2.46,0,0,0,2.111.423C333.266,615.163,337.028,611.28,337.028,611.28Z" transform="translate(-290.819 -520.778)" opacity="0.1"/>
    <path id="Path_742" data-name="Path 742" d="M327.42,658.7s-2.534-.262-2.435.563S327.42,658.7,327.42,658.7Z" transform="translate(-286.506 -560.522)" opacity="0.1"/>
    <path id="Path_743" data-name="Path 743" d="M332.06,303s-.051,1.03-.051,2.636h0a4.872,4.872,0,0,1-4.33.943,18.661,18.661,0,0,0-.928-2.816Z" transform="translate(-287.986 -262.256)" opacity="0.1"/>
    <circle id="Ellipse_39" data-name="Ellipse 39" cx="4.868" cy="4.868" r="4.868" transform="translate(36.064 34.421)" fill="#cc818c"/>
    <path id="Path_744" data-name="Path 744" d="M324.5,269.489c.137,1.991.555,4.268,2.283,5.268a5.4,5.4,0,0,0,4.2.121,18.017,18.017,0,0,1,4.174-1.1,29.988,29.988,0,0,1,3.3.288,4.008,4.008,0,0,0,3.1-.879,3.189,3.189,0,0,0-.146-4.271,5.6,5.6,0,0,0-4.316-1.538c-1.931.053-4.087.644-5.614-.528-1.025-.788-1.413-2.156-2.275-3.12-1.44-1.609-7.809-3.933-9.158-1.31-.632,1.228,2.242,2.1,2.908,2.993A6.378,6.378,0,0,1,324.5,269.489Z" transform="translate(-282.277 -227.227)" opacity="0.1"/>
    <path id="Path_745" data-name="Path 745" d="M325.43,268.425c.138,1.992.555,4.269,2.283,5.268a5.4,5.4,0,0,0,4.2.122,18.091,18.091,0,0,1,4.176-1.1,29.679,29.679,0,0,1,3.3.288,4,4,0,0,0,3.094-.879,3.189,3.189,0,0,0-.147-4.271,5.6,5.6,0,0,0-4.314-1.538c-1.931.051-4.089.644-5.616-.529-1.025-.788-1.413-2.155-2.275-3.12-1.44-1.609-7.809-3.931-9.158-1.308-.632,1.226,2.242,2.1,2.909,2.993A6.374,6.374,0,0,1,325.43,268.425Z" transform="translate(-283.057 -226.336)" fill="#663d5b"/>
    <path id="Path_746" data-name="Path 746" d="M312.73,380.077a4.5,4.5,0,0,1,1.913-3.177" transform="translate(-276.231 -324.229)" opacity="0.1"/>
    <path id="Path_747" data-name="Path 747" d="M421.594,549.879a1.582,1.582,0,0,1-.114.459,14.648,14.648,0,0,1-.759,1.846,1.256,1.256,0,0,0,.965-.764,3.7,3.7,0,0,0,.259-1.257,2.279,2.279,0,0,0,.011-.406c-.011-.126-.092-.605-.3-.52C421.489,549.308,421.6,549.752,421.594,549.879Z" transform="translate(-366.793 -468.744)" opacity="0.1"/>
    <path id="Path_748" data-name="Path 748" d="M342.778,276.066a4,4,0,0,1-3.1.879,29.4,29.4,0,0,0-3.3-.286,17.915,17.915,0,0,0-4.174,1.1,5.4,5.4,0,0,1-4.206-.121c-1.727-1-2.145-3.278-2.282-5.268a6.386,6.386,0,0,0-1.543-4.071c-.636-.848-3.275-1.685-2.972-2.824a1.791,1.791,0,0,0-.225.335c-.632,1.226,2.242,2.1,2.909,2.993a6.381,6.381,0,0,1,1.542,4.07c.138,1.992.555,4.269,2.283,5.268a5.4,5.4,0,0,0,4.2.122,18.091,18.091,0,0,1,4.176-1.1,29.655,29.655,0,0,1,3.3.288,4,4,0,0,0,3.094-.879,2.4,2.4,0,0,0,.523-.776A2.315,2.315,0,0,1,342.778,276.066Z" transform="translate(-283.058 -230.775)" opacity="0.1"/>
    <path id="Path_749" data-name="Path 749" d="M221.161,371.69l-.591,1.287,1.878-.375Z" transform="translate(-185.014 -311.703)" fill="#cc818c"/>
    <path id="Path_750" data-name="Path 750" d="M221.161,371.69l-.486,1.287h-.1Z" transform="translate(-185.015 -311.703)" opacity="0.1"/>
    <ellipse id="Ellipse_40" data-name="Ellipse 40" cx="6.598" cy="0.906" rx="6.598" ry="0.906" transform="translate(76.155 116.805)" fill="#e9fdf3" opacity="0.5"/>
    <ellipse id="Ellipse_41" data-name="Ellipse 41" cx="6.598" cy="0.906" rx="6.598" ry="0.906" transform="translate(101.507 119.367)" fill="#e9fdf3" opacity="0.5"/>
    <ellipse id="Ellipse_42" data-name="Ellipse 42" cx="6.598" cy="0.906" rx="6.598" ry="0.906" transform="translate(131.437 115.899)" fill="#e9fdf3" opacity="0.5"/>
    <ellipse id="Ellipse_43" data-name="Ellipse 43" cx="4.689" cy="0.644" rx="4.689" ry="0.644" transform="translate(93.267 126.925)" fill="#e9fdf3" opacity="0.5"/>
    <ellipse id="Ellipse_44" data-name="Ellipse 44" cx="4.689" cy="0.644" rx="4.689" ry="0.644" transform="translate(119.578 126.281)" fill="#e9fdf3" opacity="0.5"/>
    <path id="Path_751" data-name="Path 751" d="M737.911,533.172s-9.253-30.333,1.448-42.482c8-9.089,17.091-8,21.16-6.878a7.517,7.517,0,0,1,4.853,4.034c1.422,3.07,1.167,8.046-8.876,13.866-16.816,9.735-17.862,23.091-17.862,23.091Z" transform="translate(-629.607 -413.102)" fill="#18a05f"/>
    <path id="Path_752" data-name="Path 752" d="M773.782,514.39s-27.275,8.529-21.16,45.056" transform="translate(-644.334 -439.376)" fill="none" stroke="#1ec988" stroke-miterlimit="10" stroke-width="1"/>
    <path id="Path_753" data-name="Path 753" d="M789.78,533.39s3.754,2.531,2.562,6.334" transform="translate(-676.288 -455.456)" fill="none" stroke="#1ec988" stroke-miterlimit="10" stroke-width="1"/>
    <path id="Path_754" data-name="Path 754" d="M845.231,539.9s-2.3-2.336-5.091-1.047" transform="translate(-718.515 -459.725)" fill="none" stroke="#1ec988" stroke-miterlimit="10" stroke-width="1"/>
    <path id="Path_755" data-name="Path 755" d="M778.315,616.354s-4.032-2.047-5.075.516" transform="translate(-662.412 -524.391)" fill="none" stroke="#1ec988" stroke-miterlimit="10" stroke-width="1"/>
    <path id="Path_756" data-name="Path 756" d="M742.78,646.811s3.027-.241,3.082,1.207" transform="translate(-636.873 -550.569)" fill="none" stroke="#1ec988" stroke-miterlimit="10" stroke-width="1"/>
    <path id="Path_757" data-name="Path 757" d="M755,683.412s10.836-22.045,13.813-21.563c1.414.228,2.066,1.62,2.361,3.017a8.867,8.867,0,0,1-.6,5.368C769.038,673.76,764.908,680.459,755,683.412Z" transform="translate(-647.092 -563.101)" fill="#18a05f"/>
    <path id="Path_758" data-name="Path 758" d="M769.522,687.89s-11.374,16.494-13.572,17.218" transform="translate(-647.895 -584.958)" fill="none" stroke="#1ec988" stroke-miterlimit="10" stroke-width="1"/>
    <line id="Line_87" data-name="Line 87" x1="2.655" transform="translate(120.03 105.507)" fill="none" stroke="#1ec988" stroke-miterlimit="10" stroke-width="1"/>
    <line id="Line_88" data-name="Line 88" x1="4.161" y2="0.179" transform="translate(115.334 111.541)" fill="none" stroke="#1ec988" stroke-miterlimit="10" stroke-width="1"/>
    <line id="Line_89" data-name="Line 89" x2="0.452" y2="2.168" transform="translate(116.959 106.714)" fill="none" stroke="#1ec988" stroke-miterlimit="10" stroke-width="1"/>
    <line id="Line_90" data-name="Line 90" x2="0.08" y2="1.97" transform="translate(112.52 113.311)" fill="none" stroke="#1ec988" stroke-miterlimit="10" stroke-width="1"/>
    <path id="Path_759" data-name="Path 759" d="M671.73,683.412s-10.836-22.045-13.813-21.563c-1.415.228-2.066,1.62-2.361,3.017a8.868,8.868,0,0,0,.583,5.368C657.675,673.76,661.806,680.459,671.73,683.412Z" transform="translate(-563.552 -563.101)" fill="#18a05f"/>
    <path id="Path_760" data-name="Path 760" d="M671.61,687.89s11.373,16.494,13.571,17.218" transform="translate(-577.17 -584.958)" fill="none" stroke="#1ec988" stroke-miterlimit="10" stroke-width="1"/>
    <line id="Line_91" data-name="Line 91" x2="2.655" transform="translate(93.37 105.507)" fill="none" stroke="#1ec988" stroke-miterlimit="10" stroke-width="1"/>
    <line id="Line_92" data-name="Line 92" x2="4.161" y2="0.179" transform="translate(96.563 111.541)" fill="none" stroke="#1ec988" stroke-miterlimit="10" stroke-width="1"/>
    <line id="Line_93" data-name="Line 93" x1="0.451" y2="2.168" transform="translate(98.643 106.714)" fill="none" stroke="#1ec988" stroke-miterlimit="10" stroke-width="1"/>
    <line id="Line_94" data-name="Line 94" x1="0.08" y2="1.97" transform="translate(103.452 113.311)" fill="none" stroke="#1ec988" stroke-miterlimit="10" stroke-width="1"/>
    <path id="Path_761" data-name="Path 761" d="M841.371,812.332a1.871,1.871,0,0,0,.618-.93.829.829,0,0,0-.431-.948,1.211,1.211,0,0,0-1.139.4,1.521,1.521,0,0,1-1.109.534,1.684,1.684,0,0,0,.52-1.578.64.64,0,0,0-.145-.322c-.219-.235-.618-.134-.882.051a3.278,3.278,0,0,0-1.073,2.749,5.052,5.052,0,0,1-.016-1.126,1.161,1.161,0,0,0-.425-1,1.29,1.29,0,0,0-.644-.161,1.346,1.346,0,0,0-1.052.3,1.035,1.035,0,0,0,.042,1.287,4.207,4.207,0,0,0,1.088.872,2.385,2.385,0,0,1,.779.742.7.7,0,0,1,.058.132h2.358A6.562,6.562,0,0,0,841.371,812.332Z" transform="translate(-714.524 -686.873)" fill="#18a05f"/>
    <path id="Path_762" data-name="Path 762" d="M584.773,757.133a1.872,1.872,0,0,0,.616-.932.83.83,0,0,0-.431-.948,1.209,1.209,0,0,0-1.139.4,1.524,1.524,0,0,1-1.107.534,1.689,1.689,0,0,0,.517-1.583.657.657,0,0,0-.145-.322c-.22-.235-.618-.135-.882.05a3.285,3.285,0,0,0-1.075,2.749,5.163,5.163,0,0,1-.015-1.127,1.16,1.16,0,0,0-.426-1,1.273,1.273,0,0,0-.644-.151,1.335,1.335,0,0,0-1.051.3,1.037,1.037,0,0,0,.04,1.287,4.16,4.16,0,0,0,1.089.872,2.416,2.416,0,0,1,.777.742.684.684,0,0,1,.058.134h2.359A6.609,6.609,0,0,0,584.773,757.133Z" transform="translate(-499.34 -640.552)" fill="#18a05f"/>
    <path id="Path_763" data-name="Path 763" d="M670.289,812.332a1.871,1.871,0,0,0,.618-.93.829.829,0,0,0-.431-.948,1.211,1.211,0,0,0-1.139.4,1.522,1.522,0,0,1-1.109.534,1.685,1.685,0,0,0,.521-1.579.645.645,0,0,0-.145-.322c-.219-.235-.618-.133-.882.052a3.279,3.279,0,0,0-1.073,2.749,5.071,5.071,0,0,1-.016-1.126,1.161,1.161,0,0,0-.425-1,1.285,1.285,0,0,0-.644-.161,1.346,1.346,0,0,0-1.052.3,1.035,1.035,0,0,0,.042,1.287,4.2,4.2,0,0,0,1.088.872,2.387,2.387,0,0,1,.779.742.706.706,0,0,1,.058.132h2.357A6.561,6.561,0,0,0,670.289,812.332Z" transform="translate(-571.057 -686.873)" fill="#18a05f"/>
    <path id="Path_764" data-name="Path 764" d="M931.31,716.35s.885,1.155-.407,2.9-2.357,3.218-1.931,4.306c0,0,1.95-3.241,3.54-3.286S933.063,718.3,931.31,716.35Z" transform="translate(-792.854 -608.838)" fill="#18a05f"/>
    <path id="Path_765" data-name="Path 765" d="M931.582,716.35a1.386,1.386,0,0,1,.18.362c1.55,1.818,2.373,3.516.885,3.56-1.385.039-3.048,2.518-3.447,3.144a1.421,1.421,0,0,0,.047.141s1.95-3.241,3.54-3.286S933.334,718.3,931.582,716.35Z" transform="translate(-793.126 -608.838)" opacity="0.1"/>
    <path id="Path_766" data-name="Path 766" d="M953.2,724.154c0,.407-.045.737-.1.737s-.1-.335-.1-.737.056-.214.113-.214S953.2,723.752,953.2,724.154Z" transform="translate(-813.096 -615.17)" fill="#ffcd37"/>
    <path id="Path_767" data-name="Path 767" d="M954.126,727.069c-.357.195-.669.312-.695.264s.24-.248.6-.443.217-.053.243,0S954.487,726.875,954.126,727.069Z" transform="translate(-813.456 -617.599)" fill="#ffcd37"/>
    <path id="Path_768" data-name="Path 768" d="M904.647,716.35s-.885,1.155.407,2.9,2.357,3.218,1.931,4.306c0,0-1.949-3.241-3.54-3.286S902.906,718.3,904.647,716.35Z" transform="translate(-770.947 -608.838)" fill="#18a05f"/>
    <path id="Path_769" data-name="Path 769" d="M904.629,716.35a1.426,1.426,0,0,0-.182.362c-1.548,1.818-2.372,3.516-.885,3.56,1.387.039,3.057,2.518,3.448,3.144a1.138,1.138,0,0,1-.048.142s-1.949-3.241-3.54-3.286S902.888,718.3,904.629,716.35Z" transform="translate(-770.929 -608.838)" opacity="0.1"/>
    <path id="Path_770" data-name="Path 770" d="M904.81,724.145c0,.407.047.737.1.737s.1-.33.1-.737-.056-.214-.113-.214S904.81,723.743,904.81,724.145Z" transform="translate(-772.758 -615.161)" fill="#ffcd37"/>
    <path id="Path_771" data-name="Path 771" d="M900.174,727.069c.357.195.668.312.7.264s-.24-.248-.6-.443-.217-.053-.245,0S899.817,726.875,900.174,727.069Z" transform="translate(-768.687 -617.599)" fill="#ffcd37"/>
    <path id="Path_772" data-name="Path 772" d="M906.56,753.237s2.471-.076,3.218-.607,3.8-1.163,3.987-.312,3.714,4.23.924,4.253-6.483-.434-7.227-.888S906.56,753.237,906.56,753.237Z" transform="translate(-774.129 -638.669)" fill="#a8a8a8"/>
    <path id="Path_773" data-name="Path 773" d="M914.738,763.221c-2.79.022-6.485-.435-7.228-.888-.565-.344-.792-1.582-.866-2.153h-.083s.161,1.994.9,2.446,4.436.911,7.227.888c.8,0,1.083-.293,1.069-.718C915.642,763.056,915.336,763.216,914.738,763.221Z" transform="translate(-774.129 -645.615)" opacity="0.2"/>
  </g>
</svg>
