<svg xmlns="http://www.w3.org/2000/svg" width="12" height="12" viewBox="0 0 12 12">
  <path id="Icon_material-phone-in-talk" data-name="Icon material-phone-in-talk" d="M15.833,12.833a7.574,7.574,0,0,1-2.38-.38.68.68,0,0,0-.68.16L11.307,14.08A10.03,10.03,0,0,1,6.913,9.687L8.38,8.213a.64.64,0,0,0,.167-.667,7.574,7.574,0,0,1-.38-2.38A.669.669,0,0,0,7.5,4.5H5.167a.669.669,0,0,0-.667.667A11.332,11.332,0,0,0,15.833,16.5a.669.669,0,0,0,.667-.667V13.5A.669.669,0,0,0,15.833,12.833ZM15.167,10.5H16.5a6,6,0,0,0-6-6V5.833A4.663,4.663,0,0,1,15.167,10.5Zm-2.667,0h1.333A3.335,3.335,0,0,0,10.5,7.167V8.5A2,2,0,0,1,12.5,10.5Z" transform="translate(-4.5 -4.5)" fill="#18a05f"/>
</svg>
