<svg xmlns="http://www.w3.org/2000/svg" width="23.8" height="28.561" viewBox="0 0 23.8 28.561">
  <path id="Icon_map-accounting" data-name="Icon map-accounting" d="M25.02.72H5.98A2.387,2.387,0,0,0,3.6,3.1V26.9a2.387,2.387,0,0,0,2.38,2.38H25.02A2.387,2.387,0,0,0,27.4,26.9V3.1A2.387,2.387,0,0,0,25.02.72ZM10.74,24.52a1.194,1.194,0,0,1-1.19,1.19H7.17a1.194,1.194,0,0,1-1.19-1.19v-.6a1.194,1.194,0,0,1,1.19-1.19H9.55a1.194,1.194,0,0,1,1.19,1.19Zm0-4.76a1.194,1.194,0,0,1-1.19,1.19H7.17a1.194,1.194,0,0,1-1.19-1.19v-.6a1.194,1.194,0,0,1,1.19-1.19H9.55a1.194,1.194,0,0,1,1.19,1.19Zm0-4.76a1.194,1.194,0,0,1-1.19,1.19H7.17A1.194,1.194,0,0,1,5.98,15v-.6a1.194,1.194,0,0,1,1.19-1.19H9.55a1.194,1.194,0,0,1,1.19,1.19Zm7.14,9.52a1.194,1.194,0,0,1-1.19,1.19H14.31a1.194,1.194,0,0,1-1.19-1.19v-.6a1.194,1.194,0,0,1,1.19-1.19h2.38a1.194,1.194,0,0,1,1.19,1.19v.6Zm0-4.76a1.194,1.194,0,0,1-1.19,1.19H14.31a1.194,1.194,0,0,1-1.19-1.19v-.6a1.194,1.194,0,0,1,1.19-1.19h2.38a1.194,1.194,0,0,1,1.19,1.19v.6Zm0-4.76a1.194,1.194,0,0,1-1.19,1.19H14.31A1.194,1.194,0,0,1,13.12,15v-.6a1.194,1.194,0,0,1,1.19-1.19h2.38a1.194,1.194,0,0,1,1.19,1.19V15Zm7.14,9.52a1.194,1.194,0,0,1-1.19,1.19H21.45a1.194,1.194,0,0,1-1.19-1.19v-.6a1.194,1.194,0,0,1,1.19-1.19h2.38a1.194,1.194,0,0,1,1.19,1.19v.6Zm0-4.76a1.194,1.194,0,0,1-1.19,1.19H21.45a1.194,1.194,0,0,1-1.19-1.19v-.6a1.194,1.194,0,0,1,1.19-1.19h2.38a1.194,1.194,0,0,1,1.19,1.19v.6Zm0-4.76a1.194,1.194,0,0,1-1.19,1.19H21.45A1.194,1.194,0,0,1,20.26,15v-.6a1.194,1.194,0,0,1,1.19-1.19h2.38a1.194,1.194,0,0,1,1.19,1.19V15Zm0-5.355a1.194,1.194,0,0,1-1.19,1.19H7.17a1.194,1.194,0,0,1-1.19-1.19V4.885A1.194,1.194,0,0,1,7.17,3.7H23.83a1.194,1.194,0,0,1,1.19,1.19Z" transform="translate(-3.6 -0.72)" fill="#f8b600"/>
</svg>
