<svg xmlns="http://www.w3.org/2000/svg" width="9.744" height="9.744" viewBox="0 0 9.744 9.744">
  <path id="Icon_ionic-ios-checkmark-circle" data-name="Icon ionic-ios-checkmark-circle" d="M8.247,3.375a4.872,4.872,0,1,0,4.872,4.872A4.871,4.871,0,0,0,8.247,3.375ZM10.741,6.9,7.61,10.046h0a.423.423,0,0,1-.272.129.41.41,0,0,1-.274-.134L5.75,8.729a.093.093,0,0,1,0-.134l.417-.417a.091.091,0,0,1,.131,0l1.04,1.04L10.2,6.34a.092.092,0,0,1,.066-.028h0a.085.085,0,0,1,.066.028l.41.424A.092.092,0,0,1,10.741,6.9Z" transform="translate(-3.375 -3.375)" fill="#18a05f"/>
</svg>
