<svg xmlns="http://www.w3.org/2000/svg" width="31.879" height="22.315" viewBox="0 0 31.879 22.315">
  <path id="Icon_awesome-cloud-download-alt" data-name="Icon awesome-cloud-download-alt" d="M26.779,11.943a4.788,4.788,0,0,0-4.463-6.505,4.757,4.757,0,0,0-2.655.807A7.97,7.97,0,0,0,4.782,10.22c0,.134,0,.269.01.4A7.175,7.175,0,0,0,7.173,24.565H25.5a6.375,6.375,0,0,0,1.275-12.622Zm-6.62,4.418-5.25,5.25a.8.8,0,0,1-1.126,0l-5.25-5.25A.8.8,0,0,1,9.1,15h3.258V9.423a.8.8,0,0,1,.8-.8h2.391a.8.8,0,0,1,.8.8V15H19.6a.8.8,0,0,1,.563,1.36Z" transform="translate(0 -2.25)" fill="#f8b600"/>
</svg>
