<svg xmlns="http://www.w3.org/2000/svg" width="29" height="29" viewBox="0 0 29 29">
  <g id="Icon_feather-headphones" data-name="Icon feather-headphones" transform="translate(-3.5 -3.5)">
    <path id="Path_2187" data-name="Path 2187" d="M4.5,27V18a13.5,13.5,0,1,1,27,0v9" fill="none" stroke="#18a05f" stroke-linecap="round" stroke-linejoin="round" stroke-width="2"/>
    <path id="Path_2188" data-name="Path 2188" d="M31.5,28.5a3,3,0,0,1-3,3H27a3,3,0,0,1-3-3V24a3,3,0,0,1,3-3h4.5Zm-27,0a3,3,0,0,0,3,3H9a3,3,0,0,0,3-3V24a3,3,0,0,0-3-3H4.5Z" fill="none" stroke="#18a05f" stroke-linecap="round" stroke-linejoin="round" stroke-width="2"/>
  </g>
</svg>
