<svg xmlns="http://www.w3.org/2000/svg" width="43.297" height="43.289" viewBox="0 0 43.297 43.289">
  <g id="Icon_ionic-ios-apps" data-name="Icon ionic-ios-apps" transform="translate(0)">
    <path id="Path_708" data-name="Path 708" d="M46.3,12.8,29.457,5.122a9.12,9.12,0,0,0-6.639,0L5.988,12.8c-1.984.9-1.984,2.378,0,3.28l16.683,7.609a9.584,9.584,0,0,0,6.944,0L46.3,16.079C48.282,15.177,48.282,13.7,46.3,12.8Z" transform="translate(-4.489 -4.496)" fill="#18a05f"/>
    <g id="Group_643" data-name="Group 643" transform="translate(0 18.242)">
      <path id="Path_709" data-name="Path 709" d="M22.671,28.371l-11.25-5.129a1.829,1.829,0,0,0-1.5,0L5.988,25.035c-1.984.9-1.984,2.378,0,3.28l16.683,7.609a9.584,9.584,0,0,0,6.944,0L46.3,28.315c1.984-.9,1.984-2.378,0-3.28l-3.934-1.792a1.829,1.829,0,0,0-1.5,0l-11.25,5.129A9.584,9.584,0,0,1,22.671,28.371Z" transform="translate(-4.489 -11.528)" fill="#18a05f"/>
      <path id="Path_710" data-name="Path 710" d="M46.3,17.659l-3.573-1.623a1.8,1.8,0,0,0-1.488,0L29.067,21.548a9.951,9.951,0,0,1-5.85,0L11.042,16.035a1.8,1.8,0,0,0-1.488,0L5.981,17.659c-1.984.9-1.984,2.378,0,3.28l16.683,7.609a9.584,9.584,0,0,0,6.944,0l16.683-7.609C48.286,20.037,48.286,18.56,46.3,17.659Z" transform="translate(-4.493 -15.875)" fill="#18a05f"/>
    </g>
  </g>
</svg>
