<svg xmlns="http://www.w3.org/2000/svg" width="18.553" height="18.553" viewBox="0 0 18.553 18.553">
  <path id="Icon_material-shopping-cart" data-name="Icon material-shopping-cart" d="M7.066,17.842A1.855,1.855,0,1,0,8.921,19.7,1.853,1.853,0,0,0,7.066,17.842ZM1.5,3V4.855H3.355L6.695,11.9,5.442,14.169a1.794,1.794,0,0,0-.232.891,1.861,1.861,0,0,0,1.855,1.855H18.2V15.059H7.455a.23.23,0,0,1-.232-.232l.028-.111L8.086,13.2H15a1.846,1.846,0,0,0,1.623-.955l3.321-6.02a.906.906,0,0,0,.111-.445.93.93,0,0,0-.928-.928H5.405L4.533,3ZM16.342,17.842A1.855,1.855,0,1,0,18.2,19.7,1.853,1.853,0,0,0,16.342,17.842Z" transform="translate(-1.5 -3)" fill="#fff"/>
</svg>
