<svg xmlns="http://www.w3.org/2000/svg" xmlns:xlink="http://www.w3.org/1999/xlink" width="80" height="80" viewBox="0 0 80 80">
  <defs>
    <clipPath id="clip-path">
      <rect id="Rectangle_548" data-name="Rectangle 548" width="80" height="80" transform="translate(-18865 -12639)" fill="#1ec988"/>
    </clipPath>
  </defs>
  <g id="Mask_Group_39" data-name="Mask Group 39" transform="translate(18865 12639)" clip-path="url(#clip-path)">
    <g id="Group_2770" data-name="Group 2770" transform="translate(-18865 -12638)">
      <path id="Path_9246" data-name="Path 9246" d="M71.624,10.133a32.588,32.588,0,0,0-45.248,0,30.35,30.35,0,0,0-8.315,29.893c-.349-.023-.7-.052-1.061-.052A16.164,16.164,0,0,0,5.688,44.542,15.334,15.334,0,0,0,1,55.564,16.717,16.717,0,0,0,5.688,67.236L17,78.949V71.154a16.164,16.164,0,0,0,11.312-4.568,15.454,15.454,0,0,0,4.3-7.66A32.436,32.436,0,0,0,49,63.359v15.59L71.624,55.523A33.438,33.438,0,0,0,81,32.179a30.685,30.685,0,0,0-9.376-22.046ZM67.739,51.96,54.333,65.843V58.162H49a26.9,26.9,0,0,1-16.277-5.43,15.425,15.425,0,0,0-4.411-8.19,16.082,16.082,0,0,0-4.139-2.9,25.432,25.432,0,0,1,5.973-27.838,27.155,27.155,0,0,1,37.707,0,25.471,25.471,0,0,1,7.813,18.37A28.22,28.22,0,0,1,67.739,51.96Z" transform="translate(-1 -1)" fill="#fff"/>
      <ellipse id="Ellipse_393" data-name="Ellipse 393" cx="4" cy="3.897" rx="4" ry="3.897" transform="translate(44 27.282)" fill="#fff"/>
      <ellipse id="Ellipse_394" data-name="Ellipse 394" cx="4" cy="3.897" rx="4" ry="3.897" transform="translate(57.333 27.282)" fill="#fff"/>
      <ellipse id="Ellipse_395" data-name="Ellipse 395" cx="4" cy="3.897" rx="4" ry="3.897" transform="translate(30.667 27.282)" fill="#fff"/>
    </g>
  </g>
</svg>
