<svg xmlns="http://www.w3.org/2000/svg" width="14.926" height="9.955" viewBox="0 0 14.926 9.955">
  <path id="Icon_ionic-ios-arrow-round-forward" data-name="Icon ionic-ios-arrow-round-forward" d="M17.393,11.442a.677.677,0,0,0-.005.954l3.152,3.157h-12a.674.674,0,0,0,0,1.348H20.535l-3.152,3.157a.682.682,0,0,0,.005.954.671.671,0,0,0,.949-.005l4.272-4.3h0a.757.757,0,0,0,.14-.213.643.643,0,0,0,.052-.259.676.676,0,0,0-.192-.472l-4.272-4.3A.66.66,0,0,0,17.393,11.442Z" transform="translate(-7.875 -11.252)" fill="#fff"/>
</svg>
