<svg xmlns="http://www.w3.org/2000/svg" width="21.039" height="14.793" viewBox="0 0 21.039 14.793">
  <path id="Icon_awesome-youtube" data-name="Icon awesome-youtube" d="M21.649,6.815a2.644,2.644,0,0,0-1.86-1.872c-1.641-.442-8.22-.442-8.22-.442s-6.579,0-8.22.442A2.644,2.644,0,0,0,1.49,6.815a27.732,27.732,0,0,0-.44,5.1,27.732,27.732,0,0,0,.44,5.1A2.6,2.6,0,0,0,3.35,18.85c1.641.442,8.22.442,8.22.442s6.579,0,8.22-.442a2.6,2.6,0,0,0,1.86-1.842,27.732,27.732,0,0,0,.44-5.1,27.732,27.732,0,0,0-.44-5.1ZM9.418,15.04V8.783l5.5,3.128-5.5,3.128Z" transform="translate(-1.05 -4.5)" fill="#ececec"/>
</svg>
