<svg xmlns="http://www.w3.org/2000/svg" width="10" height="6.669" viewBox="0 0 10 6.669">
  <path id="Icon_ionic-ios-arrow-round-forward" data-name="Icon ionic-ios-arrow-round-forward" d="M14.252,11.379a.454.454,0,0,0,0,.639l2.112,2.115H8.323a.452.452,0,0,0,0,.9h8.034l-2.112,2.115a.457.457,0,0,0,0,.639.45.45,0,0,0,.636,0L17.746,14.9h0a.507.507,0,0,0,.094-.142.431.431,0,0,0,.035-.174.453.453,0,0,0-.129-.316L14.884,11.39A.442.442,0,0,0,14.252,11.379Z" transform="translate(-7.875 -11.252)" fill="#267ffd"/>
</svg>
