<svg xmlns="http://www.w3.org/2000/svg" width="14.152" height="16.174" viewBox="0 0 14.152 16.174">
  <path id="Icon_awesome-book" data-name="Icon awesome-book" d="M14.152,11.372V.758A.756.756,0,0,0,13.394,0H3.033A3.033,3.033,0,0,0,0,3.033V13.141a3.033,3.033,0,0,0,3.033,3.033H13.394a.756.756,0,0,0,.758-.758V14.91a.764.764,0,0,0-.281-.591,7.045,7.045,0,0,1,0-2.36A.753.753,0,0,0,14.152,11.372ZM4.043,4.233a.19.19,0,0,1,.19-.19h6.7a.19.19,0,0,1,.19.19v.632a.19.19,0,0,1-.19.19h-6.7a.19.19,0,0,1-.19-.19Zm0,2.022a.19.19,0,0,1,.19-.19h6.7a.19.19,0,0,1,.19.19v.632a.19.19,0,0,1-.19.19h-6.7a.19.19,0,0,1-.19-.19Zm8,7.9H3.033a1.011,1.011,0,1,1,0-2.022h9.016A11.372,11.372,0,0,0,12.048,14.152Z" fill="#18a05f"/>
</svg>
