<svg xmlns="http://www.w3.org/2000/svg" width="19.956" height="18.433" viewBox="0 0 19.956 18.433">
  <g id="Icon_ionic-ios-cart" data-name="Icon ionic-ios-cart" transform="translate(-3.382 -4.493)">
    <path id="Path_9235" data-name="Path 9235" d="M11.866,29.277a1.152,1.152,0,1,1-1.152-1.152,1.152,1.152,0,0,1,1.152,1.152Z" transform="translate(-1.962 -7.503)" fill="#fff"/>
    <path id="Path_9236" data-name="Path 9236" d="M27.651,29.277A1.152,1.152,0,1,1,26.5,28.125a1.152,1.152,0,0,1,1.152,1.152Z" transform="translate(-6.974 -7.503)" fill="#fff"/>
    <path id="Path_9237" data-name="Path 9237" d="M23.331,7.771a.282.282,0,0,0-.25-.2L7.452,6.057a.481.481,0,0,1-.36-.226,4.887,4.887,0,0,0-.585-.893c-.37-.451-1.065-.437-2.342-.446a.7.7,0,0,0-.782.677.686.686,0,0,0,.749.677,6.376,6.376,0,0,1,1.248.091c.226.067.408.437.475.758a.018.018,0,0,0,0,.014c.01.058.1.489.1.494l1.92,10.155a3.732,3.732,0,0,0,.7,1.713,1.915,1.915,0,0,0,1.579.777H21.5a.682.682,0,0,0,.691-.643.669.669,0,0,0-.672-.7H10.139a.558.558,0,0,1-.4-.134,2.153,2.153,0,0,1-.552-1.248l-.206-1.137A.026.026,0,0,1,9,15.958L22.328,13.7a.28.28,0,0,0,.235-.25L23.331,7.9A.274.274,0,0,0,23.331,7.771Z" fill="#fff"/>
  </g>
</svg>
