<svg xmlns="http://www.w3.org/2000/svg" width="14.928" height="14.929" viewBox="0 0 14.928 14.929">
  <path id="Icon_material-update" data-name="Icon material-update" d="M19.43,10.405H13.807l2.273-2.339a5.838,5.838,0,0,0-8.195-.083,5.7,5.7,0,0,0,0,8.12,5.822,5.822,0,0,0,8.195,0,5.4,5.4,0,0,0,1.692-4.056H19.43a7.747,7.747,0,0,1-2.19,5.217,7.509,7.509,0,0,1-10.55,0A7.332,7.332,0,0,1,6.674,6.831a7.454,7.454,0,0,1,10.492,0L19.43,4.5ZM12.38,8.647v3.525l2.9,1.725-.6,1-3.55-2.107V8.647Z" transform="translate(-4.502 -4.5)" fill="#18a05f"/>
</svg>
