<svg xmlns="http://www.w3.org/2000/svg" width="16.512" height="15.694" viewBox="0 0 16.512 15.694">
  <g id="Icon_ionic-md-star" data-name="Icon ionic-md-star" transform="translate(-3.797 -4.5)" fill="none">
    <path d="M12.053,17.116l5.1,3.078-1.35-5.806,4.5-3.9-5.937-.51L12.053,4.5,9.734,9.974l-5.937.51,4.5,3.9-1.35,5.806Z" stroke="none"/>
    <path d="M 15.6448860168457 18.11561012268066 L 14.69462490081787 14.02732944488525 L 17.86629676818848 11.27780532836914 L 13.68573474884033 10.91878890991211 L 12.05273056030273 7.063647270202637 L 10.41944408416748 10.91878890991211 L 6.239333629608154 11.27779197692871 L 9.411074638366699 14.02735900878906 L 8.460544586181641 18.11558723449707 L 12.05283451080322 15.94839859008789 L 15.6448860168457 18.11561012268066 M 17.15473365783691 20.19445991516113 L 12.05281448364258 17.11629867553711 L 6.95052433013916 20.19445991516113 L 8.300534248352051 14.3880786895752 L 3.796874523162842 10.48387908935547 L 9.733674049377441 9.974008560180664 L 12.05281448364258 4.499999046325684 L 14.37154483795166 9.974008560180664 L 20.30875396728516 10.48387908935547 L 15.80513477325439 14.3880786895752 L 17.15473365783691 20.19445991516113 Z" stroke="none" fill="#f8b600"/>
  </g>
</svg>
