<svg xmlns="http://www.w3.org/2000/svg" width="31.733" height="31.735" viewBox="0 0 31.733 31.735">
  <path id="Icon_material-update" data-name="Icon material-update" d="M36.234,17.053H24.281l4.831-4.972A12.41,12.41,0,0,0,11.693,11.9a12.121,12.121,0,0,0,0,17.26,12.376,12.376,0,0,0,17.419,0,11.483,11.483,0,0,0,3.6-8.621h3.526a16.468,16.468,0,0,1-4.654,11.09,15.962,15.962,0,0,1-22.426,0A15.585,15.585,0,0,1,9.119,9.454a15.845,15.845,0,0,1,22.3,0L36.234,4.5ZM21.249,13.315v7.493l6.171,3.667L26.15,26.609,18.6,22.13V13.315Z" transform="translate(-4.502 -4.5)" fill="#18a05f"/>
</svg>
