<svg xmlns="http://www.w3.org/2000/svg" width="12.441" height="14.929" viewBox="0 0 12.441 14.929">
  <path id="Icon_awesome-chalkboard-teacher" data-name="Icon awesome-chalkboard-teacher" d="M8.087,17.709a.889.889,0,0,0-.274.042,5.129,5.129,0,0,1-1.592.269,5.133,5.133,0,0,1-1.592-.269.887.887,0,0,0-.274-.042A4.355,4.355,0,0,0,0,22.087a1.861,1.861,0,0,0,1.866,1.842h8.709a1.861,1.861,0,0,0,1.866-1.842A4.355,4.355,0,0,0,8.087,17.709ZM6.221,16.465a3.732,3.732,0,1,0-3.732-3.732A3.732,3.732,0,0,0,6.221,16.465Z" transform="translate(0 -9)" fill="#18a05f"/>
</svg>
