<svg xmlns="http://www.w3.org/2000/svg" width="27.781" height="24.418" viewBox="0 0 27.781 24.418">
  <path id="Icon_awesome-rocketchat" data-name="Icon awesome-rocketchat" d="M23.46,5.252a17.99,17.99,0,0,0-12.739-2.27A9.212,9.212,0,0,0,0,1.179s3.525,3,2.952,5.618c-4.173,4.254-2.189,8.99,0,11.227C3.525,20.647,0,23.642,0,23.642a9.232,9.232,0,0,0,10.721-1.785A18.012,18.012,0,0,0,23.46,19.583c5.752-3.672,5.771-10.64,0-14.332ZM14.189,19.559a16.376,16.376,0,0,1-4.25-.548l-.954.921a8.669,8.669,0,0,1-1.765,1.321,6.9,6.9,0,0,1-2.494.71c.048-.086.091-.172.134-.253a6.086,6.086,0,0,0,.772-4.76,5.858,5.858,0,0,1-2.508-4.54c0-3.955,4.955-7.159,11.065-7.159s11.065,3.2,11.065,7.159S20.3,19.559,14.189,19.559ZM8.88,14.113a1.653,1.653,0,1,1,1.626-1.679v.025A1.64,1.64,0,0,1,8.88,14.114Zm3.558-1.626a1.653,1.653,0,0,1,3.305-.057v.029A1.653,1.653,0,0,1,12.438,12.487Zm6.915,1.626a1.653,1.653,0,1,1,1.626-1.679v.025a1.635,1.635,0,0,1-1.626,1.655Z" transform="translate(0 -0.202)" fill="#18a05f"/>
</svg>
