<svg xmlns="http://www.w3.org/2000/svg" width="270" height="240" viewBox="0 0 270 240">
  <g id="Group_2709" data-name="Group 2709" transform="translate(3205 -1265)">
    <g id="Rectangle_529" data-name="Rectangle 529" transform="translate(-3205 1265)" fill="#e10a1d" stroke="#707070" stroke-width="1">
      <rect width="270" height="240" stroke="none"/>
      <rect x="0.5" y="0.5" width="269" height="239" fill="none"/>
    </g>
    <g id="Group_2708" data-name="Group 2708" transform="translate(-3142 1357)">
      <path id="Path_9231" data-name="Path 9231" d="M134.631,41.736A14.236,14.236,0,0,1,120.4,55.971H64.063A14.236,14.236,0,0,1,49.828,41.736v-27.5A14.236,14.236,0,0,1,64.063,0H120.4A14.236,14.236,0,0,1,134.63,14.235v27.5Z" transform="translate(9.28)" fill="#fff"/>
      <g id="Group_2705" data-name="Group 2705" transform="translate(114.371 2.471)">
        <path id="Path_9232" data-name="Path 9232" d="M96.414,2.61S122.3-.953,123.019,10.447v9.266Z" transform="translate(-96.414 -2.083)" fill="#fff"/>
      </g>
      <g id="Group_2706" data-name="Group 2706" transform="translate(67.375 9.046)">
        <path id="Path_9233" data-name="Path 9233" d="M62.675,43.22V13.5H56.8V7.626H73.645V13.5H67.77V43.22Zm26.9-26.731V43.22H84.907V40.564q-1.477,3.368-4.323,3.368Q76,43.932,76,37.486v-21h4.6V33.956a13.322,13.322,0,0,0,.247,3.074q.443,1.594,1.77,1.6,1.434,0,1.912-1.733a14.65,14.65,0,0,0,.265-3.327V16.49h4.789ZM93.683,43.22V7.626h4.763V18.752a4.147,4.147,0,0,1,4.039-2.974q3.63,0,4.751,5.173a48.337,48.337,0,0,1,.571,9.031,44.412,44.412,0,0,1-.622,8.915q-1.173,5.034-4.8,5.034-3.023,0-4.177-3.508v2.795l-4.527,0Zm7.11-22.25q-1.952,0-2.4,4.113-.091.833-.089,5.893a41.851,41.851,0,0,0,.161,4.874q.464,2.979,2.329,2.981,1.738,0,2.112-3.651.091-.763.09-5.244,0-4.642-.072-5.291Q102.548,20.969,100.794,20.97Zm19.651,13.078h4.477q0,.185.018.52c.014.223.019.4.019.52q0,4.621-1.706,6.733t-5.3,2.112q-3.715,0-5.35-2.563a13.469,13.469,0,0,1-1.656-5.935q-.16-1.71-.16-6.446,0-3.811.16-5.426a11.512,11.512,0,0,1,1.406-4.988,6.276,6.276,0,0,1,5.724-2.795,5.967,5.967,0,0,1,5.561,3.023q1.424,2.447,1.421,9.877v2.03h-9.349c-.034.294-.053.865-.053,1.711a24.931,24.931,0,0,0,.249,4.255q.516,2.614,2.133,2.613,2.4,0,2.4-5.238Zm-4.771-7.582h4.611V25.337a11.583,11.583,0,0,0-.321-3.274,1.971,1.971,0,0,0-2.007-1.544,1.854,1.854,0,0,0-1.8,1.061,7.993,7.993,0,0,0-.533,3.758l.025.369Q115.674,26.1,115.674,26.466Z" transform="translate(-56.797 -7.626)" fill="#e10a1d"/>
      </g>
      <g id="Group_2707" data-name="Group 2707" transform="translate(0 9.046)">
        <path id="Path_9234" data-name="Path 9234" d="M7.221,43.422V28.245L0,7.626H5.684L9.849,21.092,13.96,7.626h5.523L12.392,28.244V43.422H7.221ZM21.253,29.994q0-6.945,1.055-9.851a6.069,6.069,0,0,1,6.217-4.32,6.1,6.1,0,0,1,6.235,4.32q1.055,2.881,1.055,9.851t-1.055,9.847a6.1,6.1,0,0,1-6.235,4.3,6.068,6.068,0,0,1-6.217-4.32q-1.055-2.879-1.055-9.824Zm4.91.348q0,4.993.053,5.432.372,3.6,2.273,3.6t2.326-3.087q.089-.674.089-5.038V28.624q0-4.087-.106-4.922-.447-3.064-2.274-3.064-1.778,0-2.222,2.694a40.664,40.664,0,0,0-.141,4.526v2.484Zm26.817-13.8V43.422h-4.7V40.751q-1.486,3.388-4.346,3.387-4.616,0-4.616-6.48V16.541h4.624V34.105a13.413,13.413,0,0,0,.248,3.089q.445,1.6,1.779,1.606,1.441,0,1.923-1.743a14.707,14.707,0,0,0,.267-3.345V16.541H52.98Z" transform="translate(0 -7.626)" fill="#fff"/>
      </g>
    </g>
  </g>
</svg>
