<svg xmlns="http://www.w3.org/2000/svg" width="270" height="240" viewBox="0 0 270 240">
  <g id="Group_2710" data-name="Group 2710" transform="translate(3475 -1265)">
    <g id="Rectangle_528" data-name="Rectangle 528" transform="translate(-3475 1265)" fill="#415f9d" stroke="#707070" stroke-width="1">
      <rect width="270" height="240" stroke="none"/>
      <rect x="0.5" y="0.5" width="269" height="239" fill="none"/>
    </g>
    <g id="Group_2704" data-name="Group 2704" transform="translate(1464.6 1570.703)">
      <g id="Group_2704-2" data-name="Group 2704" transform="translate(-4898.6 -204.703)">
        <path id="Path_9229" data-name="Path 9229" d="M51.05,36.3v5.722H47.907s-2.9-.4-2.9,2.337v4.594H51.05l-.725,6.206H45.005V72.567H38.074V55.078H33.4V48.953h4.916V43.714a5.767,5.767,0,0,1,1.934-5.239A9.083,9.083,0,0,1,46.214,36.3H51.05M67.813,49.033v3.143A8.882,8.882,0,0,0,60.8,48.388c-5.4,0-9.752,4.755-9.752,12.492S55.4,73.372,60.8,73.372A8.892,8.892,0,0,0,67.894,69.5l-.081,3.063H74.5V49.033H67.813m-.4,14.184a4.514,4.514,0,1,1-9.026,0V58.7a4.514,4.514,0,1,1,9.026,0v4.513m61.9,9.51V69.585a8.881,8.881,0,0,0,7.012,3.788c5.4,0,9.752-4.755,9.752-12.492s-4.352-12.492-9.752-12.492a8.892,8.892,0,0,0-7.092,3.868l.081-15.555-7.012.806V72.647l7.012.081m.4-14.184a4.514,4.514,0,1,1,9.026,0v4.513a4.514,4.514,0,1,1-9.026,0V58.543M89.654,67.65s-5.4.322-5.4-6.689v-.4c0-6.931,5.4-6.689,5.4-6.689,3.627-.081,4.916,1.209,4.916,1.209L96.263,50c-2.9-2.176-11.686-2.5-15.635,1.128-3.385,3.143-3.385,8.221-3.385,9.591-.081,1.289-.081,6.447,3.385,9.591,3.949,3.627,12.734,3.3,15.635,1.128L94.57,66.361c0,.081-1.289,1.37-4.916,1.289" transform="translate(-33.4 -36.297)" fill="#fff"/>
        <path id="Path_9230" data-name="Path 9230" d="M134.74,63.438s2.821-14.749-10.638-14.829-11.525,13.3-11.525,13.3c.322,8.14,4.03,10.477,10.477,11.283A21.02,21.02,0,0,0,134.337,71.5l-1.451-4.755s-5.158,1.612-9.268,1.209c-4.11-.322-3.788-4.594-3.788-4.594h14.91Zm-15.071-4.755s-.322-5.239,4.352-5.239,4.352,5.239,4.352,5.239h-8.7m55.69-9.913c-8.785,0-11.686,5.319-11.686,12.331,0,7.5,3.788,12.331,11.686,12.331,6.447,0,11.686-4.352,11.686-12.331,0-6.85-3.385-12.331-11.686-12.331m4.513,14.346a4.755,4.755,0,0,1-4.594,4.594,4.7,4.7,0,0,1-4.594-4.594V58.6a4.755,4.755,0,0,1,4.594-4.594,4.7,4.7,0,0,1,4.594,4.594v4.513M201.23,48.77c-8.785,0-11.686,5.319-11.686,12.331,0,7.5,3.788,12.331,11.686,12.331,6.447,0,11.686-4.352,11.686-12.331,0-6.85-3.385-12.331-11.686-12.331m4.513,14.346a4.755,4.755,0,0,1-4.594,4.594,4.7,4.7,0,0,1-4.594-4.594V58.6a4.755,4.755,0,0,1,4.594-4.594,4.7,4.7,0,0,1,4.594,4.594v4.513M237.5,72.706,229.84,60.859l7.334-11.847h-7.5L222.506,59.65V36.6l-7.012.725V72.706h7.012V60.7l7.737,12.008Z" transform="translate(-48.747 -36.356)" fill="#fff"/>
      </g>
    </g>
  </g>
</svg>
