<svg xmlns="http://www.w3.org/2000/svg" xmlns:xlink="http://www.w3.org/1999/xlink" width="80" height="80" viewBox="0 0 80 80">
  <defs>
    <clipPath id="clip-path">
      <rect id="Rectangle_547" data-name="Rectangle 547" width="80" height="80" transform="translate(-19045 -12639)" fill="#1ec988"/>
    </clipPath>
  </defs>
  <g id="Mask_Group_38" data-name="Mask Group 38" transform="translate(19045 12639)" clip-path="url(#clip-path)">
    <g id="Group_2772" data-name="Group 2772" transform="translate(-19046.998 -12640.857)">
      <path id="Path_9249" data-name="Path 9249" d="M19.05,32.071A14.607,14.607,0,1,0,4.444,17.464,14.623,14.623,0,0,0,19.05,32.071Zm0-24.508a9.9,9.9,0,1,1-9.9,9.9A9.913,9.913,0,0,1,19.05,7.563Z" transform="translate(0.431 0)" fill="#fff"/>
      <path id="Path_9250" data-name="Path 9250" d="M12.709,15.575l-.006-.314a.867.867,0,0,1,.025-.288,1.177,1.177,0,0,0-2.312-.444,3.059,3.059,0,0,0-.066.809l0,.235a1.178,1.178,0,0,0,2.354,0Z" transform="translate(1.473 1.891)" fill="#fff"/>
      <path id="Path_9251" data-name="Path 9251" d="M12.459,13.995a1.174,1.174,0,0,0,.979-.522,5.3,5.3,0,0,1,4.406-2.353,1.176,1.176,0,0,0,0-2.353,7.645,7.645,0,0,0-6.361,3.4,1.178,1.178,0,0,0,.976,1.832Z" transform="translate(1.638 1.043)" fill="#fff"/>
      <path id="Path_9252" data-name="Path 9252" d="M47.049,32.071A14.607,14.607,0,1,0,32.443,17.464,14.622,14.622,0,0,0,47.049,32.071Zm0-24.508a9.9,9.9,0,1,1-9.9,9.9A9.913,9.913,0,0,1,47.049,7.563Z" transform="translate(5.37 0)" fill="#fff"/>
      <path id="Path_9253" data-name="Path 9253" d="M40.459,13.995a1.174,1.174,0,0,0,.979-.522,5.294,5.294,0,0,1,4.4-2.353,1.176,1.176,0,1,0,0-2.353,7.643,7.643,0,0,0-6.36,3.4,1.176,1.176,0,0,0,.976,1.832Z" transform="translate(6.577 1.043)" fill="#fff"/>
      <path id="Path_9254" data-name="Path 9254" d="M80.648,32.648a3.9,3.9,0,0,0-2.9-1.211,7.348,7.348,0,0,0-3.223.858q-6.209,3.31-12.448,6.561l.057-.882c0-.058.007-.231.007-.289a8.45,8.45,0,0,0-8.155-8.541H10.294C5.873,29.143,2,33.491,2,38.071V68.82C2,73.225,5.721,76.2,10.294,76.2H53.983a7.806,7.806,0,0,0,8.15-7.669s0,.011,0,0l-.122-1.958c3.126,1.567,7.982,4.084,12.485,6.456a2.269,2.269,0,0,0,.386.172,11.164,11.164,0,0,0,3.14.641,3.849,3.849,0,0,0,3.188-1.516A5.378,5.378,0,0,0,82,69.057V37.28C82,36.343,82.116,34.137,80.648,32.648ZM77.43,69.007c-.328-.078-.679-.187-.923-.262C60.682,60.413,60.131,60.4,59.432,60.4a2.328,2.328,0,0,0-1.714.711,2.217,2.217,0,0,0-.634,1.693l.347,5.689a3.159,3.159,0,0,1-3.449,3H10.294c-2,0-3.589-.847-3.589-2.673V38.071c0-1.993,1.752-4.222,3.589-4.222H53.983a3.8,3.8,0,0,1,3.448,3.761l-.345,5.081a2.351,2.351,0,0,0,2.347,2.521c.767,0,.972,0,17.219-8.692a4.888,4.888,0,0,1,.741-.3,6.828,6.828,0,0,1,.04.982Z" transform="translate(0 4.637)" fill="#fff"/>
      <path id="Path_9255" data-name="Path 9255" d="M53.115,62.635l0-.072C53.119,62.588,53.115,62.611,53.115,62.635Z" transform="translate(9.017 10.532)" fill="#fff"/>
      <path id="Path_9256" data-name="Path 9256" d="M66.661,67.143l-.035,0-.036,0Z" transform="translate(11.394 11.34)" fill="#fff"/>
      <path id="Path_9257" data-name="Path 9257" d="M53.118,62.567v0Z" transform="translate(9.018 10.528)" fill="#fff"/>
      <path id="Path_9258" data-name="Path 9258" d="M22.256,35.142H12.263C9.9,35.142,8,38.054,8,40.23v5.978a1.176,1.176,0,1,0,2.353,0V40.229c0-1.1,1.052-2.733,1.912-2.733h9.992a1.177,1.177,0,1,0,0-2.354Z" transform="translate(1.058 5.695)" fill="#fff"/>
      <path id="Path_9259" data-name="Path 9259" d="M25.471,35.143H24.294a1.176,1.176,0,1,0,0,2.353h1.176a1.176,1.176,0,1,0,0-2.353Z" transform="translate(3.725 5.695)" fill="#fff"/>
    </g>
  </g>
</svg>
