<svg xmlns="http://www.w3.org/2000/svg" width="8" height="5.336" viewBox="0 0 8 5.336">
  <path id="Icon_ionic-ios-arrow-round-forward" data-name="Icon ionic-ios-arrow-round-forward" d="M12.977,11.354a.363.363,0,0,0,0,.511l1.689,1.692H8.233a.361.361,0,0,0,0,.722h6.427l-1.689,1.692a.366.366,0,0,0,0,.511.36.36,0,0,0,.509,0l2.29-2.306h0a.406.406,0,0,0,.075-.114.345.345,0,0,0,.028-.139.362.362,0,0,0-.1-.253l-2.29-2.306A.354.354,0,0,0,12.977,11.354Z" transform="translate(-7.875 -11.252)" fill="#267ffd"/>
</svg>
