<svg xmlns="http://www.w3.org/2000/svg" width="13.515" height="13.514" viewBox="0 0 13.515 13.514">
  <path id="Icon_awesome-chess-queen" data-name="Icon awesome-chess-queen" d="M6.757,2.956A1.478,1.478,0,1,0,5.279,1.478,1.478,1.478,0,0,0,6.757,2.956ZM11.4,11.825H2.112a.422.422,0,0,0-.422.422v.845a.422.422,0,0,0,.422.422H11.4a.422.422,0,0,0,.422-.422v-.845A.422.422,0,0,0,11.4,11.825Zm1.923-6.964-.753-.42a.432.432,0,0,0-.588.124,1.256,1.256,0,0,1-1.247.481A1.314,1.314,0,0,1,9.714,3.732a.354.354,0,0,0-.354-.354H8.336A.343.343,0,0,0,8,3.64a1.267,1.267,0,0,1-2.48,0,.342.342,0,0,0-.339-.262H4.155a.354.354,0,0,0-.354.354A1.313,1.313,0,0,1,2.622,5.065a1.254,1.254,0,0,1-1.1-.505.428.428,0,0,0-.583-.12l-.754.422a.422.422,0,0,0-.144.54l2.707,5.578h8.012L13.47,5.4a.422.422,0,0,0-.144-.54Z" fill="#f8b600"/>
</svg>
