<svg xmlns="http://www.w3.org/2000/svg" xmlns:xlink="http://www.w3.org/1999/xlink" width="80" height="80" viewBox="0 0 80 80">
  <defs>
    <clipPath id="clip-path">
      <rect id="Rectangle_546" data-name="Rectangle 546" width="80" height="80" transform="translate(-19223 -12639)" fill="#1ec988"/>
    </clipPath>
  </defs>
  <g id="Mask_Group_37" data-name="Mask Group 37" transform="translate(19223 12639)" clip-path="url(#clip-path)">
    <g id="Group_2768" data-name="Group 2768" transform="translate(-19223 -12639)">
      <path id="Path_9242" data-name="Path 9242" d="M79.709,45.291H76.919V12.733A2.788,2.788,0,0,0,76.1,10.76L68.658,3.319A2.788,2.788,0,0,0,66.686,2.5H10.872A2.787,2.787,0,0,0,8.081,5.291V34.128H5.291A2.787,2.787,0,0,0,2.5,36.919V79.709A2.787,2.787,0,0,0,5.291,82.5H79.709A2.787,2.787,0,0,0,82.5,79.709V48.081A2.787,2.787,0,0,0,79.709,45.291ZM13.663,8.081h51.87l5.8,5.8v31.4H36.547l-6.6-9.916a2.8,2.8,0,0,0-2.326-1.247H13.663ZM76.919,76.919H8.081V39.709H26.128l6.6,9.916h0a2.562,2.562,0,0,0,.409.484,1.064,1.064,0,0,1,.149.13,2.37,2.37,0,0,0,.353.242.869.869,0,0,0,.186.093,2.923,2.923,0,0,0,.428.167l.167.056a3.462,3.462,0,0,0,.633.074h41.86Z" transform="translate(-2.5 -2.5)" fill="#fff"/>
      <path id="Path_9243" data-name="Path 9243" d="M14.791,14.081H53.86a2.791,2.791,0,0,0,0-5.581H14.791a2.791,2.791,0,1,0,0,5.581Zm41.86,6.512A2.787,2.787,0,0,0,53.86,17.8H14.791a2.791,2.791,0,0,0,0,5.581H53.86A2.787,2.787,0,0,0,56.651,20.593ZM53.86,27.1H29.674a2.791,2.791,0,1,0,0,5.581H53.86a2.791,2.791,0,0,0,0-5.581Z" transform="translate(5.674 2.663)" fill="#fff"/>
    </g>
  </g>
</svg>
